# MagicaVoxel @ Ephtracy

# group
o 

# material
mtllib BarFront1.mtl
usemtl palette

# normals
vn -1 0 0
vn 1 0 0
vn 0 0 1
vn 0 0 -1
vn 0 -1 0
vn 0 1 0

# texcoords
vt 0.966797 0.5
vt 0.986328 0.5
vt 0.990234 0.5

# verts
v -3.2 0 1.2
v -3.2 0 -1.7
v -3.2 0.4 2
v -3.2 0.4 1.6
v -3.2 0.5 2.1
v -3.2 0.5 2
v -3.2 0.8 2.1
v -3.2 0.8 2
v -3.2 0.9 2
v -3.2 0.9 1.6
v -3.2 0.9 1.2
v -3.2 0.9 1.1
v -3.2 1 1.2
v -3.2 1 1.1
v -3.2 2.3 1.2
v -3.2 2.3 1.1
v -3.2 2.4 1.2
v -3.2 2.4 1.1
v -3.2 3.6 1.2
v -3.2 3.6 1.1
v -3.2 3.7 1.2
v -3.2 3.7 1.1
v -3.2 4.5 1.6
v -3.2 4.5 1.2
v -3.2 4.5 -1.7
v -3.2 4.5 -2.2
v -3.2 4.6 1.7
v -3.2 4.6 1.6
v -3.2 4.7 1.2
v -3.2 4.7 -1.7
v -3.2 5.1 1.7
v -3.2 5.1 1.6
v -3.2 5.1 -2.1
v -3.2 5.1 -2.2
v -3.2 5.2 1.6
v -3.2 5.2 -2.1
v -2.2 4.6 1.2
v -2.2 4.6 1.1
v -2.2 4.7 1.2
v -2.2 4.7 1.1
v -2.1 4.9 0.4
v -2.1 4.9 0.3
v -2.1 5 0.4
v -2.1 5 0.3
v -2 0 1.9
v -2 0 1.8
v -2 0.4 1.9
v -2 0.4 1.8
v -2 0.8 1.6
v -2 0.8 1.2
v -2 0.9 1.6
v -2 0.9 1.2
v -1.9 4.5 1
v -1.9 4.5 0.9
v -1.9 4.6 1
v -1.9 4.6 0.9
v -1.6 4.7 0.9
v -1.6 4.7 0.8
v -1.6 4.8 0.9
v -1.6 4.8 0.8
v -1.4 5 0.0999999
v -1.4 5 0
v -1.4 5.1 0.0999999
v -1.4 5.1 0
v -0.9 4.8 0.6
v -0.9 4.8 0.5
v -0.9 4.9 0.6
v -0.9 4.9 0.5
v -0.7 4.5 1.1
v -0.7 4.5 1
v -0.7 4.6 1.1
v -0.7 4.6 1
v -0.4 4.6 1.1
v -0.4 4.6 1
v -0.4 4.7 1.1
v -0.4 4.7 1
v -0.3 4.9 0.3
v -0.3 4.9 0.2
v -0.3 5 0.3
v -0.3 5 0.2
v 0.3 4.7 0.8
v 0.3 4.7 0.7
v 0.3 4.8 0.8
v 0.3 4.8 0.7
v 0.4 4.7 0.3
v 0.4 4.7 0.0999999
v 0.4 4.8 0.3
v 0.4 4.8 0.0999999
v 0.4 5 0
v 0.4 5 -0.0999999
v 0.4 5.1 0
v 0.4 5.1 -0.0999999
v 0.9 4.8 0.5
v 0.9 4.8 0.4
v 0.9 4.9 0.5
v 0.9 4.9 0.4
v 1.5 4.6 1
v 1.5 4.6 0.9
v 1.5 4.7 1
v 1.5 4.7 0.9
v 1.6 4.9 0.2
v 1.6 4.9 0.0999999
v 1.6 5 0.2
v 1.6 5 0.0999999
v 1.9 0 1.9
v 1.9 0 1.8
v 1.9 0.4 1.9
v 1.9 0.4 1.8
v 1.9 0.8 1.6
v 1.9 0.8 1.2
v 1.9 0.9 1.6
v 1.9 0.9 1.2
v 2.1 4.7 0.7
v 2.1 4.7 0.6
v 2.1 4.8 0.7
v 2.1 4.8 0.6
v 2.2 5 -0.0999999
v 2.2 5 -0.2
v 2.2 5.1 -0.0999999
v 2.2 5.1 -0.2
v 2.6 4.5 1.2
v 2.6 4.5 1.1
v 2.6 4.6 1.2
v 2.6 4.6 1.1
v 2.7 4.8 0.4
v 2.7 4.8 0.3
v 2.7 4.9 0.4
v 2.7 4.9 0.3
v 3 0 0.8
v 3 0 -1.7
v 3 4.5 0.8
v 3 4.5 -1.7
v -3 0 0.8
v -3 0 -1.7
v -3 4.5 0.8
v -3 4.5 -1.7
v -2.7 4.6 1.2
v -2.7 4.6 1.1
v -2.7 4.7 1.2
v -2.7 4.7 1.1
v -2.6 4.9 0.4
v -2.6 4.9 0.3
v -2.6 5 0.4
v -2.6 5 0.3
v -2.1 4.5 1
v -2.1 4.5 0.9
v -2.1 4.6 1
v -2.1 4.6 0.9
v -2.1 4.7 0.9
v -2.1 4.7 0.8
v -2.1 4.8 0.9
v -2.1 4.8 0.8
v -1.9 0 1.9
v -1.9 0 1.8
v -1.9 0.4 1.9
v -1.9 0.4 1.8
v -1.9 0.8 1.6
v -1.9 0.8 1.2
v -1.9 0.9 1.6
v -1.9 0.9 1.2
v -1.9 5 0.0999999
v -1.9 5 0
v -1.9 5.1 0.0999999
v -1.9 5.1 0
v -1.4 4.8 0.6
v -1.4 4.8 0.5
v -1.4 4.9 0.6
v -1.4 4.9 0.5
v -0.9 4.5 1.1
v -0.9 4.5 1
v -0.9 4.7 1.1
v -0.9 4.7 1
v -0.8 4.9 0.3
v -0.8 4.9 0.2
v -0.8 5 0.3
v -0.8 5 0.2
v -0.2 4.7 0.8
v -0.2 4.7 0.7
v -0.2 4.8 0.8
v -0.2 4.8 0.7
v -0.0999999 5 0
v -0.0999999 5 -0.0999999
v -0.0999999 5.1 0
v -0.0999999 5.1 -0.0999999
v 0 4.7 0.3
v 0 4.7 0.0999999
v 0 4.8 0.3
v 0 4.8 0.0999999
v 0.4 4.8 0.5
v 0.4 4.8 0.4
v 0.4 4.9 0.5
v 0.4 4.9 0.4
v 1 4.6 1
v 1 4.6 0.9
v 1 4.7 1
v 1 4.7 0.9
v 1.1 4.9 0.2
v 1.1 4.9 0.0999999
v 1.1 5 0.2
v 1.1 5 0.0999999
v 1.6 4.7 0.7
v 1.6 4.7 0.6
v 1.6 4.8 0.7
v 1.6 4.8 0.6
v 1.7 5 -0.0999999
v 1.7 5 -0.2
v 1.7 5.1 -0.0999999
v 1.7 5.1 -0.2
v 2 0 1.9
v 2 0 1.8
v 2 0.4 1.9
v 2 0.4 1.8
v 2 0.8 1.6
v 2 0.8 1.2
v 2 0.9 1.6
v 2 0.9 1.2
v 2.1 4.5 1.2
v 2.1 4.5 1.1
v 2.1 4.6 1.2
v 2.1 4.6 1.1
v 2.3 4.8 0.4
v 2.3 4.8 0.3
v 2.3 4.9 0.4
v 2.3 4.9 0.3
v 3.1 4.5 0.9
v 3.1 4.5 0.8
v 3.1 4.6 0.9
v 3.1 4.6 0.8
v 3.2 0 1.2
v 3.2 0 -1.7
v 3.2 0.4 2
v 3.2 0.4 1.6
v 3.2 0.5 2.1
v 3.2 0.5 2
v 3.2 0.8 2.1
v 3.2 0.8 2
v 3.2 0.9 2
v 3.2 0.9 1.6
v 3.2 0.9 1.2
v 3.2 0.9 1.1
v 3.2 1 1.2
v 3.2 1 1.1
v 3.2 2.3 1.2
v 3.2 2.3 1.1
v 3.2 2.4 1.2
v 3.2 2.4 1.1
v 3.2 3.6 1.2
v 3.2 3.6 1.1
v 3.2 3.7 1.2
v 3.2 3.7 1.1
v 3.2 4.5 1.6
v 3.2 4.5 1.2
v 3.2 4.5 0.9
v 3.2 4.5 0.8
v 3.2 4.5 -1.7
v 3.2 4.5 -2.2
v 3.2 4.6 1.7
v 3.2 4.6 1.6
v 3.2 4.6 0.9
v 3.2 4.6 0.8
v 3.2 4.7 1.2
v 3.2 4.7 -1.7
v 3.2 5.1 1.7
v 3.2 5.1 1.6
v 3.2 5.1 -2.1
v 3.2 5.1 -2.2
v 3.2 5.2 1.6
v 3.2 5.2 -2.1
v -3.2 0.5 2.1
v -3.2 0.8 2.1
v 3.2 0.5 2.1
v 3.2 0.8 2.1
v -3.2 0.4 2
v -3.2 0.5 2
v -3.2 0.8 2
v -3.2 0.9 2
v 3.2 0.4 2
v 3.2 0.5 2
v 3.2 0.8 2
v 3.2 0.9 2
v -2 0 1.9
v -2 0.4 1.9
v -1.9 0 1.9
v -1.9 0.4 1.9
v 1.9 0 1.9
v 1.9 0.4 1.9
v 2 0 1.9
v 2 0.4 1.9
v -3.2 4.6 1.7
v -3.2 5.1 1.7
v 3.2 4.6 1.7
v 3.2 5.1 1.7
v -3.2 4.5 1.6
v -3.2 4.6 1.6
v -3.2 5.1 1.6
v -3.2 5.2 1.6
v 3.2 4.5 1.6
v 3.2 4.6 1.6
v 3.2 5.1 1.6
v 3.2 5.2 1.6
v -3.2 0 1.2
v -3.2 0.9 1.2
v -3.2 1 1.2
v -3.2 2.3 1.2
v -3.2 2.4 1.2
v -3.2 3.6 1.2
v -3.2 3.7 1.2
v -3.2 4.5 1.2
v -3 0 1.2
v -3 0.9 1.2
v -3 1 1.2
v -3 2.3 1.2
v -3 2.4 1.2
v -3 3.6 1.2
v -3 3.7 1.2
v -3 4.5 1.2
v -2.9 0 1.2
v -2.9 0.5 1.2
v -2.9 0.6 1.2
v -2.9 1.9 1.2
v -2.9 2 1.2
v -2.9 3.3 1.2
v -2.9 3.4 1.2
v -2.9 4.5 1.2
v -2.5 0 1.2
v -2.5 0.5 1.2
v -2.5 0.6 1.2
v -2.5 1.9 1.2
v -2.5 2 1.2
v -2.5 3.3 1.2
v -2.5 3.4 1.2
v -2.5 4.5 1.2
v -2.4 0 1.2
v -2.4 0.9 1.2
v -2.4 1 1.2
v -2.4 2.3 1.2
v -2.4 2.4 1.2
v -2.4 3.6 1.2
v -2.4 3.7 1.2
v -2.4 4.5 1.2
v -2 0 1.2
v -2 0.8 1.2
v -2 0.9 1.2
v -2 1 1.2
v -2 2.3 1.2
v -2 2.4 1.2
v -2 3.6 1.2
v -2 3.7 1.2
v -2 4.5 1.2
v -1.9 0 1.2
v -1.9 0.5 1.2
v -1.9 0.6 1.2
v -1.9 0.8 1.2
v -1.9 0.9 1.2
v -1.9 1.9 1.2
v -1.9 2 1.2
v -1.9 3.3 1.2
v -1.9 3.4 1.2
v -1.9 4.5 1.2
v -1.5 0 1.2
v -1.5 0.5 1.2
v -1.5 0.6 1.2
v -1.5 1.9 1.2
v -1.5 2 1.2
v -1.5 3.3 1.2
v -1.5 3.4 1.2
v -1.5 4.5 1.2
v -1.4 0 1.2
v -1.4 0.9 1.2
v -1.4 1 1.2
v -1.4 2.2 1.2
v -1.4 2.3 1.2
v -1.4 3.6 1.2
v -1.4 3.7 1.2
v -1.4 4.5 1.2
v -1 0 1.2
v -1 0.9 1.2
v -1 1 1.2
v -1 2.2 1.2
v -1 2.3 1.2
v -1 3.6 1.2
v -1 3.7 1.2
v -1 4.5 1.2
v -0.9 0 1.2
v -0.9 0.5 1.2
v -0.9 0.6 1.2
v -0.9 1.9 1.2
v -0.9 2 1.2
v -0.9 3.3 1.2
v -0.9 3.4 1.2
v -0.9 4.5 1.2
v -0.5 0 1.2
v -0.5 0.5 1.2
v -0.5 0.6 1.2
v -0.5 1.9 1.2
v -0.5 2 1.2
v -0.5 3.3 1.2
v -0.5 3.4 1.2
v -0.5 4.5 1.2
v -0.4 0 1.2
v -0.4 0.9 1.2
v -0.4 1 1.2
v -0.4 2.2 1.2
v -0.4 2.3 1.2
v -0.4 3.6 1.2
v -0.4 3.7 1.2
v -0.4 4.5 1.2
v -0.0999999 0 1.2
v -0.0999999 0.9 1.2
v -0.0999999 1 1.2
v -0.0999999 2.2 1.2
v -0.0999999 2.3 1.2
v -0.0999999 3.6 1.2
v -0.0999999 3.7 1.2
v -0.0999999 4.5 1.2
v 0.1 0 1.2
v 0.1 0.9 1.2
v 0.1 1 1.2
v 0.1 2.2 1.2
v 0.1 2.3 1.2
v 0.1 3.6 1.2
v 0.1 3.7 1.2
v 0.1 4.5 1.2
v 0.4 0 1.2
v 0.4 0.9 1.2
v 0.4 1 1.2
v 0.4 2.2 1.2
v 0.4 2.3 1.2
v 0.4 3.6 1.2
v 0.4 3.7 1.2
v 0.4 4.5 1.2
v 0.5 0 1.2
v 0.5 0.5 1.2
v 0.5 0.6 1.2
v 0.5 1.9 1.2
v 0.5 2 1.2
v 0.5 3.3 1.2
v 0.5 3.4 1.2
v 0.5 4.5 1.2
v 0.9 0 1.2
v 0.9 0.5 1.2
v 0.9 0.6 1.2
v 0.9 1.9 1.2
v 0.9 2 1.2
v 0.9 3.3 1.2
v 0.9 3.4 1.2
v 0.9 4.5 1.2
v 1 0 1.2
v 1 0.9 1.2
v 1 1 1.2
v 1 2.2 1.2
v 1 2.3 1.2
v 1 3.6 1.2
v 1 3.7 1.2
v 1 4.5 1.2
v 1.4 0 1.2
v 1.4 0.9 1.2
v 1.4 1 1.2
v 1.4 2.2 1.2
v 1.4 2.3 1.2
v 1.4 3.6 1.2
v 1.4 3.7 1.2
v 1.4 4.5 1.2
v 1.5 0 1.2
v 1.5 0.5 1.2
v 1.5 0.6 1.2
v 1.5 1.9 1.2
v 1.5 2 1.2
v 1.5 3.3 1.2
v 1.5 3.4 1.2
v 1.5 4.5 1.2
v 1.9 0 1.2
v 1.9 0.5 1.2
v 1.9 0.6 1.2
v 1.9 0.8 1.2
v 1.9 0.9 1.2
v 1.9 1.9 1.2
v 1.9 2 1.2
v 1.9 3.3 1.2
v 1.9 3.4 1.2
v 1.9 4.5 1.2
v 2 0 1.2
v 2 0.8 1.2
v 2 0.9 1.2
v 2 1 1.2
v 2 2.2 1.2
v 2 2.3 1.2
v 2 3.6 1.2
v 2 3.7 1.2
v 2 4.5 1.2
v 2.4 0 1.2
v 2.4 0.9 1.2
v 2.4 1 1.2
v 2.4 2.2 1.2
v 2.4 2.3 1.2
v 2.4 3.6 1.2
v 2.4 3.7 1.2
v 2.4 4.5 1.2
v 2.5 0 1.2
v 2.5 0.5 1.2
v 2.5 0.6 1.2
v 2.5 1.9 1.2
v 2.5 2 1.2
v 2.5 3.3 1.2
v 2.5 3.4 1.2
v 2.5 4.5 1.2
v 2.9 0 1.2
v 2.9 0.5 1.2
v 2.9 0.6 1.2
v 2.9 1.9 1.2
v 2.9 2 1.2
v 2.9 3.3 1.2
v 2.9 3.4 1.2
v 2.9 4.5 1.2
v 3 0 1.2
v 3 0.9 1.2
v 3 1 1.2
v 3 2.3 1.2
v 3 2.4 1.2
v 3 3.6 1.2
v 3 3.7 1.2
v 3 4.5 1.2
v 3.2 0 1.2
v 3.2 0.9 1.2
v 3.2 1 1.2
v 3.2 2.3 1.2
v 3.2 2.4 1.2
v 3.2 3.6 1.2
v 3.2 3.7 1.2
v 3.2 4.5 1.2
v -2.7 4.6 1.1
v -2.7 4.7 1.1
v -2.2 4.6 1.1
v -2.2 4.7 1.1
v 2.1 4.5 1.1
v 2.1 4.6 1.1
v 2.4 4.5 1.1
v 2.5 4.5 1.1
v 2.6 4.5 1.1
v 2.6 4.6 1.1
v -0.9 4.5 1
v -0.9 4.7 1
v -0.7 4.5 1
v -0.7 4.6 1
v -0.4 4.6 1
v -0.4 4.7 1
v -2.1 4.5 0.9
v -2.1 4.6 0.9
v -1.9 4.5 0.9
v -1.9 4.6 0.9
v 1 4.6 0.9
v 1 4.7 0.9
v 1.5 4.6 0.9
v 1.5 4.7 0.9
v -2.1 4.7 0.8
v -2.1 4.8 0.8
v -1.6 4.7 0.8
v -1.6 4.8 0.8
v 3.1 4.5 0.8
v 3.1 4.6 0.8
v 3.2 4.5 0.8
v 3.2 4.6 0.8
v -0.2 4.7 0.7
v -0.2 4.8 0.7
v 0.3 4.7 0.7
v 0.3 4.8 0.7
v 1.6 4.7 0.6
v 1.6 4.8 0.6
v 2.1 4.7 0.6
v 2.1 4.8 0.6
v -1.4 4.8 0.5
v -1.4 4.9 0.5
v -0.9 4.8 0.5
v -0.9 4.9 0.5
v 0.4 4.8 0.4
v 0.4 4.9 0.4
v 0.9 4.8 0.4
v 0.9 4.9 0.4
v -2.6 4.9 0.3
v -2.6 5 0.3
v -2.1 4.9 0.3
v -2.1 5 0.3
v 2.3 4.8 0.3
v 2.3 4.9 0.3
v 2.7 4.8 0.3
v 2.7 4.9 0.3
v -0.8 4.9 0.2
v -0.8 5 0.2
v -0.3 4.9 0.2
v -0.3 5 0.2
v 0 4.7 0.0999999
v 0 4.8 0.0999999
v 0.4 4.7 0.0999999
v 0.4 4.8 0.0999999
v 1.1 4.9 0.0999999
v 1.1 5 0.0999999
v 1.6 4.9 0.0999999
v 1.6 5 0.0999999
v -1.9 5 0
v -1.9 5.1 0
v -1.4 5 0
v -1.4 5.1 0
v -0.0999999 5 -0.0999999
v -0.0999999 5.1 -0.0999999
v 0.4 5 -0.0999999
v 0.4 5.1 -0.0999999
v 1.7 5 -0.2
v 1.7 5.1 -0.2
v 2.2 5 -0.2
v 2.2 5.1 -0.2
v -2 0 1.8
v -2 0.4 1.8
v -1.9 0 1.8
v -1.9 0.4 1.8
v 1.9 0 1.8
v 1.9 0.4 1.8
v 2 0 1.8
v 2 0.4 1.8
v -3.2 0.4 1.6
v -3.2 0.9 1.6
v -2 0.8 1.6
v -2 0.9 1.6
v -1.9 0.8 1.6
v -1.9 0.9 1.6
v 1.9 0.8 1.6
v 1.9 0.9 1.6
v 2 0.8 1.6
v 2 0.9 1.6
v 3.2 0.4 1.6
v 3.2 0.9 1.6
v -2.7 4.6 1.2
v -2.7 4.7 1.2
v -2.2 4.6 1.2
v -2.2 4.7 1.2
v 2.1 4.5 1.2
v 2.1 4.6 1.2
v 2.4 4.5 1.2
v 2.5 4.5 1.2
v 2.6 4.5 1.2
v 2.6 4.6 1.2
v -0.9 4.5 1.1
v -0.9 4.7 1.1
v -0.7 4.5 1.1
v -0.7 4.6 1.1
v -0.4 4.6 1.1
v -0.4 4.7 1.1
v -2.1 4.5 1
v -2.1 4.6 1
v -1.9 4.5 1
v -1.9 4.6 1
v 1 4.6 1
v 1 4.7 1
v 1.5 4.6 1
v 1.5 4.7 1
v -2.1 4.7 0.9
v -2.1 4.8 0.9
v -1.6 4.7 0.9
v -1.6 4.8 0.9
v 3.1 4.5 0.9
v 3.1 4.6 0.9
v 3.2 4.5 0.9
v 3.2 4.6 0.9
v -3 0 0.8
v -3 4.5 0.8
v -0.2 4.7 0.8
v -0.2 4.8 0.8
v 0.3 4.7 0.8
v 0.3 4.8 0.8
v 3 0 0.8
v 3 4.5 0.8
v 1.6 4.7 0.7
v 1.6 4.8 0.7
v 2.1 4.7 0.7
v 2.1 4.8 0.7
v -1.4 4.8 0.6
v -1.4 4.9 0.6
v -0.9 4.8 0.6
v -0.9 4.9 0.6
v 0.4 4.8 0.5
v 0.4 4.9 0.5
v 0.9 4.8 0.5
v 0.9 4.9 0.5
v -2.6 4.9 0.4
v -2.6 5 0.4
v -2.1 4.9 0.4
v -2.1 5 0.4
v 2.3 4.8 0.4
v 2.3 4.9 0.4
v 2.7 4.8 0.4
v 2.7 4.9 0.4
v -0.8 4.9 0.3
v -0.8 5 0.3
v -0.3 4.9 0.3
v -0.3 5 0.3
v 0 4.7 0.3
v 0 4.8 0.3
v 0.4 4.7 0.3
v 0.4 4.8 0.3
v 1.1 4.9 0.2
v 1.1 5 0.2
v 1.6 4.9 0.2
v 1.6 5 0.2
v -1.9 5 0.0999999
v -1.9 5.1 0.0999999
v -1.4 5 0.0999999
v -1.4 5.1 0.0999999
v -0.0999999 5 0
v -0.0999999 5.1 0
v 0.4 5 0
v 0.4 5.1 0
v 1.7 5 -0.0999999
v 1.7 5.1 -0.0999999
v 2.2 5 -0.0999999
v 2.2 5.1 -0.0999999
v -3.2 0 -1.7
v -3.2 4.5 -1.7
v -3 0 -1.7
v -3 4.5 -1.7
v 3 0 -1.7
v 3 4.5 -1.7
v 3.2 0 -1.7
v 3.2 4.5 -1.7
v -3.2 5.1 -2.1
v -3.2 5.2 -2.1
v 3.2 5.1 -2.1
v 3.2 5.2 -2.1
v -3.2 4.5 -2.2
v -3.2 5.1 -2.2
v 3.2 4.5 -2.2
v 3.2 5.1 -2.2
v -2 0 1.9
v -1.9 0 1.9
v 1.9 0 1.9
v 2 0 1.9
v -2 0 1.8
v -1.9 0 1.8
v 1.9 0 1.8
v 2 0 1.8
v -3.2 0 1.2
v -3 0 1.2
v -2.9 0 1.2
v -2.5 0 1.2
v -2.4 0 1.2
v -2 0 1.2
v -1.9 0 1.2
v -1.5 0 1.2
v -1.4 0 1.2
v -1 0 1.2
v -0.9 0 1.2
v -0.5 0 1.2
v -0.4 0 1.2
v -0.0999999 0 1.2
v 0.1 0 1.2
v 0.4 0 1.2
v 0.5 0 1.2
v 0.9 0 1.2
v 1 0 1.2
v 1.4 0 1.2
v 1.5 0 1.2
v 1.9 0 1.2
v 2 0 1.2
v 2.4 0 1.2
v 2.5 0 1.2
v 2.9 0 1.2
v 3 0 1.2
v 3.2 0 1.2
v -3 0 1.1
v -2.9 0 1.1
v -2.5 0 1.1
v -2.4 0 1.1
v -2 0 1.1
v -1.9 0 1.1
v -1.5 0 1.1
v -1.4 0 1.1
v -1 0 1.1
v -0.9 0 1.1
v -0.5 0 1.1
v -0.4 0 1.1
v -0.0999999 0 1.1
v 0.1 0 1.1
v 0.4 0 1.1
v 0.5 0 1.1
v 0.9 0 1.1
v 1 0 1.1
v 1.4 0 1.1
v 1.5 0 1.1
v 1.9 0 1.1
v 2 0 1.1
v 2.4 0 1.1
v 2.5 0 1.1
v 2.9 0 1.1
v 3 0 1.1
v -3 0 0.8
v 3 0 0.8
v -3.2 0 -1.7
v -3 0 -1.7
v 3 0 -1.7
v 3.2 0 -1.7
v -3.2 0.4 2
v 3.2 0.4 2
v -2 0.4 1.9
v -1.9 0.4 1.9
v 1.9 0.4 1.9
v 2 0.4 1.9
v -2 0.4 1.8
v -1.9 0.4 1.8
v 1.9 0.4 1.8
v 2 0.4 1.8
v -3.2 0.4 1.6
v 3.2 0.4 1.6
v -3.2 0.5 2.1
v 3.2 0.5 2.1
v -3.2 0.5 2
v 3.2 0.5 2
v -2 0.8 1.6
v -1.9 0.8 1.6
v 1.9 0.8 1.6
v 2 0.8 1.6
v -2 0.8 1.2
v -1.9 0.8 1.2
v 1.9 0.8 1.2
v 2 0.8 1.2
v -3.2 4.5 1.6
v 3.2 4.5 1.6
v -3.2 4.5 1.2
v -3 4.5 1.2
v -2.9 4.5 1.2
v -2.5 4.5 1.2
v -2.4 4.5 1.2
v -2 4.5 1.2
v -1.9 4.5 1.2
v -1.5 4.5 1.2
v -1.4 4.5 1.2
v -1 4.5 1.2
v -0.9 4.5 1.2
v -0.5 4.5 1.2
v -0.4 4.5 1.2
v -0.0999999 4.5 1.2
v 0.1 4.5 1.2
v 0.4 4.5 1.2
v 0.5 4.5 1.2
v 0.9 4.5 1.2
v 1 4.5 1.2
v 1.4 4.5 1.2
v 1.5 4.5 1.2
v 1.9 4.5 1.2
v 2 4.5 1.2
v 2.4 4.5 1.2
v 2.5 4.5 1.2
v 2.9 4.5 1.2
v 3 4.5 1.2
v 3.2 4.5 1.2
v -3 4.5 0.8
v 3 4.5 0.8
v -3.2 4.5 -1.7
v -3 4.5 -1.7
v 3 4.5 -1.7
v 3.2 4.5 -1.7
v -3.2 4.5 -2.2
v 3.2 4.5 -2.2
v -3.2 4.6 1.7
v 3.2 4.6 1.7
v -3.2 4.6 1.6
v 3.2 4.6 1.6
v 2.1 4.6 1.2
v 2.6 4.6 1.2
v 2.1 4.6 1.1
v 2.6 4.6 1.1
v -2.1 4.6 1
v -1.9 4.6 1
v -2.1 4.6 0.9
v -1.9 4.6 0.9
v 3.1 4.6 0.9
v 3.2 4.6 0.9
v 3.1 4.6 0.8
v 3.2 4.6 0.8
v -2.7 4.7 1.2
v -2.2 4.7 1.2
v -2.7 4.7 1.1
v -2.2 4.7 1.1
v -0.9 4.7 1.1
v -0.4 4.7 1.1
v -0.9 4.7 1
v -0.4 4.7 1
v 1 4.7 1
v 1.5 4.7 1
v 1 4.7 0.9
v 1.5 4.7 0.9
v -2.1 4.8 0.9
v -1.6 4.8 0.9
v -2.1 4.8 0.8
v -1.6 4.8 0.8
v -0.2 4.8 0.8
v 0.3 4.8 0.8
v -0.2 4.8 0.7
v 0.3 4.8 0.7
v 1.6 4.8 0.7
v 2.1 4.8 0.7
v 1.6 4.8 0.6
v 2.1 4.8 0.6
v 0 4.8 0.3
v 0.4 4.8 0.3
v 0 4.8 0.0999999
v 0.4 4.8 0.0999999
v -1.4 4.9 0.6
v -0.9 4.9 0.6
v -1.4 4.9 0.5
v -0.9 4.9 0.5
v 0.4 4.9 0.5
v 0.9 4.9 0.5
v 0.4 4.9 0.4
v 0.9 4.9 0.4
v 2.3 4.9 0.4
v 2.7 4.9 0.4
v 2.3 4.9 0.3
v 2.7 4.9 0.3
v -2.6 5 0.4
v -2.1 5 0.4
v -2.6 5 0.3
v -2.1 5 0.3
v -0.8 5 0.3
v -0.3 5 0.3
v -0.8 5 0.2
v -0.3 5 0.2
v 1.1 5 0.2
v 1.6 5 0.2
v 1.1 5 0.0999999
v 1.6 5 0.0999999
v -1.9 5.1 0.0999999
v -1.4 5.1 0.0999999
v -1.9 5.1 0
v -1.4 5.1 0
v -0.0999999 5.1 0
v 0.4 5.1 0
v -0.0999999 5.1 -0.0999999
v 0.4 5.1 -0.0999999
v 1.7 5.1 -0.0999999
v 2.2 5.1 -0.0999999
v 1.7 5.1 -0.2
v 2.2 5.1 -0.2
v -3.2 0.8 2.1
v 3.2 0.8 2.1
v -3.2 0.8 2
v 3.2 0.8 2
v -3.2 0.9 2
v 3.2 0.9 2
v -3.2 0.9 1.6
v -2 0.9 1.6
v -1.9 0.9 1.6
v 1.9 0.9 1.6
v 2 0.9 1.6
v 3.2 0.9 1.6
v -2 0.9 1.2
v -1.9 0.9 1.2
v 1.9 0.9 1.2
v 2 0.9 1.2
v 2.1 4.5 1.2
v 2.4 4.5 1.2
v 2.5 4.5 1.2
v 2.6 4.5 1.2
v -0.9 4.5 1.1
v -0.7 4.5 1.1
v 2.1 4.5 1.1
v 2.4 4.5 1.1
v 2.5 4.5 1.1
v 2.6 4.5 1.1
v -2.1 4.5 1
v -1.9 4.5 1
v -0.9 4.5 1
v -0.7 4.5 1
v -2.1 4.5 0.9
v -1.9 4.5 0.9
v 3.1 4.5 0.9
v 3.2 4.5 0.9
v 3.1 4.5 0.8
v 3.2 4.5 0.8
v -2.7 4.6 1.2
v -2.2 4.6 1.2
v -2.7 4.6 1.1
v -2.2 4.6 1.1
v -0.7 4.6 1.1
v -0.4 4.6 1.1
v -0.7 4.6 1
v -0.4 4.6 1
v 1 4.6 1
v 1.5 4.6 1
v 1 4.6 0.9
v 1.5 4.6 0.9
v -2.1 4.7 0.9
v -1.6 4.7 0.9
v -2.1 4.7 0.8
v -1.6 4.7 0.8
v -0.2 4.7 0.8
v 0.3 4.7 0.8
v -0.2 4.7 0.7
v 0.3 4.7 0.7
v 1.6 4.7 0.7
v 2.1 4.7 0.7
v 1.6 4.7 0.6
v 2.1 4.7 0.6
v 0 4.7 0.3
v 0.4 4.7 0.3
v 0 4.7 0.0999999
v 0.4 4.7 0.0999999
v -1.4 4.8 0.6
v -0.9 4.8 0.6
v -1.4 4.8 0.5
v -0.9 4.8 0.5
v 0.4 4.8 0.5
v 0.9 4.8 0.5
v 0.4 4.8 0.4
v 0.9 4.8 0.4
v 2.3 4.8 0.4
v 2.7 4.8 0.4
v 2.3 4.8 0.3
v 2.7 4.8 0.3
v -2.6 4.9 0.4
v -2.1 4.9 0.4
v -2.6 4.9 0.3
v -2.1 4.9 0.3
v -0.8 4.9 0.3
v -0.3 4.9 0.3
v -0.8 4.9 0.2
v -0.3 4.9 0.2
v 1.1 4.9 0.2
v 1.6 4.9 0.2
v 1.1 4.9 0.0999999
v 1.6 4.9 0.0999999
v -1.9 5 0.0999999
v -1.4 5 0.0999999
v -1.9 5 0
v -1.4 5 0
v -0.0999999 5 0
v 0.4 5 0
v -0.0999999 5 -0.0999999
v 0.4 5 -0.0999999
v 1.7 5 -0.0999999
v 2.2 5 -0.0999999
v 1.7 5 -0.2
v 2.2 5 -0.2
v -3.2 5.1 1.7
v 3.2 5.1 1.7
v -3.2 5.1 1.6
v 3.2 5.1 1.6
v -3.2 5.1 -2.1
v 3.2 5.1 -2.1
v -3.2 5.1 -2.2
v 3.2 5.1 -2.2
v -3.2 5.2 1.6
v 3.2 5.2 1.6
v -3.2 5.2 -2.1
v 3.2 5.2 -2.1

# faces
f 6/1/1 4/1/1 3/1/1
f 7/1/1 6/1/1 5/1/1
f 8/1/1 4/1/1 6/1/1
f 8/1/1 6/1/1 7/1/1
f 9/1/1 4/1/1 8/1/1
f 10/1/1 4/1/1 9/1/1
f 11/3/1 2/3/1 1/3/1
f 12/3/1 2/3/1 11/3/1
f 13/2/1 12/2/1 11/2/1
f 14/3/1 2/3/1 12/3/1
f 14/2/1 12/2/1 13/2/1
f 15/3/1 14/3/1 13/3/1
f 16/3/1 2/3/1 14/3/1
f 16/3/1 14/3/1 15/3/1
f 17/2/1 16/2/1 15/2/1
f 18/3/1 2/3/1 16/3/1
f 18/2/1 16/2/1 17/2/1
f 19/3/1 18/3/1 17/3/1
f 20/3/1 2/3/1 18/3/1
f 20/3/1 18/3/1 19/3/1
f 21/2/1 20/2/1 19/2/1
f 22/3/1 2/3/1 20/3/1
f 22/2/1 20/2/1 21/2/1
f 24/3/1 22/3/1 21/3/1
f 25/3/1 2/3/1 22/3/1
f 25/3/1 22/3/1 24/3/1
f 28/1/1 24/1/1 23/1/1
f 29/3/1 25/3/1 24/3/1
f 29/1/1 28/1/1 27/1/1
f 29/1/1 24/1/1 28/1/1
f 30/1/1 26/1/1 25/1/1
f 30/3/1 25/3/1 29/3/1
f 31/1/1 29/1/1 27/1/1
f 31/1/1 30/1/1 29/1/1
f 32/1/1 30/1/1 31/1/1
f 33/1/1 26/1/1 30/1/1
f 33/1/1 30/1/1 32/1/1
f 34/1/1 26/1/1 33/1/1
f 35/1/1 33/1/1 32/1/1
f 36/1/1 33/1/1 35/1/1
f 39/3/1 38/3/1 37/3/1
f 40/3/1 38/3/1 39/3/1
f 43/1/1 42/1/1 41/1/1
f 44/1/1 42/1/1 43/1/1
f 47/1/1 46/1/1 45/1/1
f 48/1/1 46/1/1 47/1/1
f 51/1/1 50/1/1 49/1/1
f 52/1/1 50/1/1 51/1/1
f 55/3/1 54/3/1 53/3/1
f 56/3/1 54/3/1 55/3/1
f 59/1/1 58/1/1 57/1/1
f 60/1/1 58/1/1 59/1/1
f 63/1/1 62/1/1 61/1/1
f 64/1/1 62/1/1 63/1/1
f 67/1/1 66/1/1 65/1/1
f 68/1/1 66/1/1 67/1/1
f 71/3/1 70/3/1 69/3/1
f 72/3/1 70/3/1 71/3/1
f 75/3/1 74/3/1 73/3/1
f 76/3/1 74/3/1 75/3/1
f 79/1/1 78/1/1 77/1/1
f 80/1/1 78/1/1 79/1/1
f 83/1/1 82/1/1 81/1/1
f 84/1/1 82/1/1 83/1/1
f 87/1/1 86/1/1 85/1/1
f 88/1/1 86/1/1 87/1/1
f 91/1/1 90/1/1 89/1/1
f 92/1/1 90/1/1 91/1/1
f 95/1/1 94/1/1 93/1/1
f 96/1/1 94/1/1 95/1/1
f 99/3/1 98/3/1 97/3/1
f 100/3/1 98/3/1 99/3/1
f 103/1/1 102/1/1 101/1/1
f 104/1/1 102/1/1 103/1/1
f 107/1/1 106/1/1 105/1/1
f 108/1/1 106/1/1 107/1/1
f 111/1/1 110/1/1 109/1/1
f 112/1/1 110/1/1 111/1/1
f 115/1/1 114/1/1 113/1/1
f 116/1/1 114/1/1 115/1/1
f 119/1/1 118/1/1 117/1/1
f 120/1/1 118/1/1 119/1/1
f 123/3/1 122/3/1 121/3/1
f 124/3/1 122/3/1 123/3/1
f 127/1/1 126/1/1 125/1/1
f 128/1/1 126/1/1 127/1/1
f 131/3/1 130/3/1 129/3/1
f 132/3/1 130/3/1 131/3/1
f 133/3/2 134/3/2 135/3/2
f 135/3/2 134/3/2 136/3/2
f 137/3/2 138/3/2 139/3/2
f 139/3/2 138/3/2 140/3/2
f 141/1/2 142/1/2 143/1/2
f 143/1/2 142/1/2 144/1/2
f 145/3/2 146/3/2 147/3/2
f 147/3/2 146/3/2 148/3/2
f 149/1/2 150/1/2 151/1/2
f 151/1/2 150/1/2 152/1/2
f 153/1/2 154/1/2 155/1/2
f 155/1/2 154/1/2 156/1/2
f 157/1/2 158/1/2 159/1/2
f 159/1/2 158/1/2 160/1/2
f 161/1/2 162/1/2 163/1/2
f 163/1/2 162/1/2 164/1/2
f 165/1/2 166/1/2 167/1/2
f 167/1/2 166/1/2 168/1/2
f 169/3/2 170/3/2 171/3/2
f 171/3/2 170/3/2 172/3/2
f 173/1/2 174/1/2 175/1/2
f 175/1/2 174/1/2 176/1/2
f 177/1/2 178/1/2 179/1/2
f 179/1/2 178/1/2 180/1/2
f 181/1/2 182/1/2 183/1/2
f 183/1/2 182/1/2 184/1/2
f 185/1/2 186/1/2 187/1/2
f 187/1/2 186/1/2 188/1/2
f 189/1/2 190/1/2 191/1/2
f 191/1/2 190/1/2 192/1/2
f 193/3/2 194/3/2 195/3/2
f 195/3/2 194/3/2 196/3/2
f 197/1/2 198/1/2 199/1/2
f 199/1/2 198/1/2 200/1/2
f 201/1/2 202/1/2 203/1/2
f 203/1/2 202/1/2 204/1/2
f 205/1/2 206/1/2 207/1/2
f 207/1/2 206/1/2 208/1/2
f 209/1/2 210/1/2 211/1/2
f 211/1/2 210/1/2 212/1/2
f 213/1/2 214/1/2 215/1/2
f 215/1/2 214/1/2 216/1/2
f 217/3/2 218/3/2 219/3/2
f 219/3/2 218/3/2 220/3/2
f 221/1/2 222/1/2 223/1/2
f 223/1/2 222/1/2 224/1/2
f 225/3/2 226/3/2 227/3/2
f 227/3/2 226/3/2 228/3/2
f 231/1/2 232/1/2 234/1/2
f 233/1/2 234/1/2 235/1/2
f 234/1/2 232/1/2 236/1/2
f 235/1/2 234/1/2 236/1/2
f 236/1/2 232/1/2 237/1/2
f 237/1/2 232/1/2 238/1/2
f 229/3/2 230/3/2 239/3/2
f 239/3/2 230/3/2 240/3/2
f 239/2/2 240/2/2 241/2/2
f 240/3/2 230/3/2 242/3/2
f 241/2/2 240/2/2 242/2/2
f 241/3/2 242/3/2 243/3/2
f 242/3/2 230/3/2 244/3/2
f 243/3/2 242/3/2 244/3/2
f 243/2/2 244/2/2 245/2/2
f 244/3/2 230/3/2 246/3/2
f 245/2/2 244/2/2 246/2/2
f 245/3/2 246/3/2 247/3/2
f 246/3/2 230/3/2 248/3/2
f 247/3/2 246/3/2 248/3/2
f 247/2/2 248/2/2 249/2/2
f 248/3/2 230/3/2 250/3/2
f 249/2/2 248/2/2 250/2/2
f 249/3/2 250/3/2 252/3/2
f 250/3/2 230/3/2 253/3/2
f 252/3/2 250/3/2 253/3/2
f 253/3/2 230/3/2 254/3/2
f 254/3/2 230/3/2 255/3/2
f 251/1/2 252/1/2 258/1/2
f 252/3/2 253/3/2 259/3/2
f 254/3/2 255/3/2 260/3/2
f 252/3/2 259/3/2 261/3/2
f 259/3/2 260/3/2 261/3/2
f 257/1/2 258/1/2 261/1/2
f 258/1/2 252/1/2 261/1/2
f 260/3/2 255/3/2 262/3/2
f 261/3/2 260/3/2 262/3/2
f 255/1/2 256/1/2 262/1/2
f 257/1/2 261/1/2 263/1/2
f 261/1/2 262/1/2 263/1/2
f 263/1/2 262/1/2 264/1/2
f 262/1/2 256/1/2 265/1/2
f 264/1/2 262/1/2 265/1/2
f 265/1/2 256/1/2 266/1/2
f 264/1/2 265/1/2 267/1/2
f 267/1/2 265/1/2 268/1/2
f 271/1/3 270/1/3 269/1/3
f 272/1/3 270/1/3 271/1/3
f 277/1/3 274/1/3 273/1/3
f 278/1/3 274/1/3 277/1/3
f 279/1/3 276/1/3 275/1/3
f 280/1/3 276/1/3 279/1/3
f 283/1/3 282/1/3 281/1/3
f 284/1/3 282/1/3 283/1/3
f 287/1/3 286/1/3 285/1/3
f 288/1/3 286/1/3 287/1/3
f 291/1/3 290/1/3 289/1/3
f 292/1/3 290/1/3 291/1/3
f 297/1/3 294/1/3 293/1/3
f 298/1/3 294/1/3 297/1/3
f 299/1/3 296/1/3 295/1/3
f 300/1/3 296/1/3 299/1/3
f 309/3/3 302/3/3 301/3/3
f 310/2/3 303/2/3 302/2/3
f 310/3/3 302/3/3 309/3/3
f 311/3/3 304/3/3 303/3/3
f 311/2/3 303/2/3 310/2/3
f 312/2/3 305/2/3 304/2/3
f 312/3/3 304/3/3 311/3/3
f 313/3/3 306/3/3 305/3/3
f 313/2/3 305/2/3 312/2/3
f 314/2/3 307/2/3 306/2/3
f 314/3/3 306/3/3 313/3/3
f 315/3/3 308/3/3 307/3/3
f 315/2/3 307/2/3 314/2/3
f 316/3/3 308/3/3 315/3/3
f 317/2/3 314/2/3 313/2/3
f 317/2/3 310/2/3 309/2/3
f 317/2/3 316/2/3 315/2/3
f 317/2/3 315/2/3 314/2/3
f 317/2/3 313/2/3 312/2/3
f 317/2/3 312/2/3 311/2/3
f 317/2/3 311/2/3 310/2/3
f 318/2/3 316/2/3 317/2/3
f 319/2/3 316/2/3 318/2/3
f 320/2/3 316/2/3 319/2/3
f 321/2/3 316/2/3 320/2/3
f 322/2/3 316/2/3 321/2/3
f 323/2/3 316/2/3 322/2/3
f 324/2/3 316/2/3 323/2/3
f 325/3/3 318/3/3 317/3/3
f 326/2/3 319/2/3 318/2/3
f 326/3/3 318/3/3 325/3/3
f 327/3/3 320/3/3 319/3/3
f 327/2/3 319/2/3 326/2/3
f 328/2/3 321/2/3 320/2/3
f 328/3/3 320/3/3 327/3/3
f 329/3/3 322/3/3 321/3/3
f 329/2/3 321/2/3 328/2/3
f 330/2/3 323/2/3 322/2/3
f 330/3/3 322/3/3 329/3/3
f 331/3/3 324/3/3 323/3/3
f 331/2/3 323/2/3 330/2/3
f 332/3/3 324/3/3 331/3/3
f 333/2/3 326/2/3 325/2/3
f 333/2/3 327/2/3 326/2/3
f 333/2/3 332/2/3 331/2/3
f 333/2/3 331/2/3 330/2/3
f 333/2/3 330/2/3 329/2/3
f 333/2/3 329/2/3 328/2/3
f 333/2/3 328/2/3 327/2/3
f 334/2/3 332/2/3 333/2/3
f 335/2/3 332/2/3 334/2/3
f 336/2/3 332/2/3 335/2/3
f 337/2/3 332/2/3 336/2/3
f 338/2/3 332/2/3 337/2/3
f 339/2/3 332/2/3 338/2/3
f 340/2/3 332/2/3 339/2/3
f 341/3/3 334/3/3 333/3/3
f 342/3/3 334/3/3 341/3/3
f 343/2/3 335/2/3 334/2/3
f 343/3/3 334/3/3 342/3/3
f 344/3/3 336/3/3 335/3/3
f 344/2/3 335/2/3 343/2/3
f 345/2/3 337/2/3 336/2/3
f 345/3/3 336/3/3 344/3/3
f 346/3/3 338/3/3 337/3/3
f 346/2/3 337/2/3 345/2/3
f 347/2/3 339/2/3 338/2/3
f 347/3/3 338/3/3 346/3/3
f 348/3/3 340/3/3 339/3/3
f 348/2/3 339/2/3 347/2/3
f 349/3/3 340/3/3 348/3/3
f 350/2/3 342/2/3 341/2/3
f 351/2/3 342/2/3 350/2/3
f 352/2/3 342/2/3 351/2/3
f 353/2/3 342/2/3 352/2/3
f 354/2/3 349/2/3 348/2/3
f 354/2/3 344/2/3 343/2/3
f 354/2/3 345/2/3 344/2/3
f 354/2/3 346/2/3 345/2/3
f 354/2/3 347/2/3 346/2/3
f 354/2/3 348/2/3 347/2/3
f 355/2/3 349/2/3 354/2/3
f 356/2/3 349/2/3 355/2/3
f 357/2/3 349/2/3 356/2/3
f 358/2/3 349/2/3 357/2/3
f 359/2/3 349/2/3 358/2/3
f 360/3/3 351/3/3 350/3/3
f 361/2/3 352/2/3 351/2/3
f 361/3/3 351/3/3 360/3/3
f 362/3/3 353/3/3 352/3/3
f 362/2/3 352/2/3 361/2/3
f 362/3/3 354/3/3 353/3/3
f 362/3/3 355/3/3 354/3/3
f 363/2/3 356/2/3 355/2/3
f 363/3/3 355/3/3 362/3/3
f 364/3/3 357/3/3 356/3/3
f 364/2/3 356/2/3 363/2/3
f 365/2/3 358/2/3 357/2/3
f 365/3/3 357/3/3 364/3/3
f 366/3/3 359/3/3 358/3/3
f 366/2/3 358/2/3 365/2/3
f 367/3/3 359/3/3 366/3/3
f 368/2/3 361/2/3 360/2/3
f 368/2/3 365/2/3 364/2/3
f 368/2/3 367/2/3 366/2/3
f 368/2/3 366/2/3 365/2/3
f 368/2/3 363/2/3 362/2/3
f 368/2/3 362/2/3 361/2/3
f 368/2/3 364/2/3 363/2/3
f 369/2/3 367/2/3 368/2/3
f 370/2/3 367/2/3 369/2/3
f 371/2/3 367/2/3 370/2/3
f 372/2/3 367/2/3 371/2/3
f 373/2/3 367/2/3 372/2/3
f 374/2/3 367/2/3 373/2/3
f 375/2/3 367/2/3 374/2/3
f 376/3/3 369/3/3 368/3/3
f 377/2/3 370/2/3 369/2/3
f 377/3/3 369/3/3 376/3/3
f 378/3/3 371/3/3 370/3/3
f 378/2/3 370/2/3 377/2/3
f 379/2/3 372/2/3 371/2/3
f 379/3/3 371/3/3 378/3/3
f 380/3/3 373/3/3 372/3/3
f 380/2/3 372/2/3 379/2/3
f 381/2/3 374/2/3 373/2/3
f 381/3/3 373/3/3 380/3/3
f 382/3/3 375/3/3 374/3/3
f 382/2/3 374/2/3 381/2/3
f 383/3/3 375/3/3 382/3/3
f 384/2/3 377/2/3 376/2/3
f 384/2/3 378/2/3 377/2/3
f 384/2/3 383/2/3 382/2/3
f 384/2/3 382/2/3 381/2/3
f 384/2/3 381/2/3 380/2/3
f 384/2/3 380/2/3 379/2/3
f 384/2/3 379/2/3 378/2/3
f 385/2/3 383/2/3 384/2/3
f 386/2/3 383/2/3 385/2/3
f 387/2/3 383/2/3 386/2/3
f 388/2/3 383/2/3 387/2/3
f 389/2/3 383/2/3 388/2/3
f 390/2/3 383/2/3 389/2/3
f 391/2/3 383/2/3 390/2/3
f 392/3/3 385/3/3 384/3/3
f 393/2/3 386/2/3 385/2/3
f 393/3/3 385/3/3 392/3/3
f 394/3/3 387/3/3 386/3/3
f 394/2/3 386/2/3 393/2/3
f 395/2/3 388/2/3 387/2/3
f 395/3/3 387/3/3 394/3/3
f 396/3/3 389/3/3 388/3/3
f 396/2/3 388/2/3 395/2/3
f 397/2/3 390/2/3 389/2/3
f 397/3/3 389/3/3 396/3/3
f 398/3/3 391/3/3 390/3/3
f 398/2/3 390/2/3 397/2/3
f 399/3/3 391/3/3 398/3/3
f 400/2/3 393/2/3 392/2/3
f 400/2/3 394/2/3 393/2/3
f 400/2/3 399/2/3 398/2/3
f 400/2/3 398/2/3 397/2/3
f 400/2/3 397/2/3 396/2/3
f 400/2/3 396/2/3 395/2/3
f 400/2/3 395/2/3 394/2/3
f 401/2/3 399/2/3 400/2/3
f 402/2/3 399/2/3 401/2/3
f 403/2/3 399/2/3 402/2/3
f 404/2/3 399/2/3 403/2/3
f 405/2/3 399/2/3 404/2/3
f 406/2/3 399/2/3 405/2/3
f 407/2/3 399/2/3 406/2/3
f 408/3/3 401/3/3 400/3/3
f 409/2/3 402/2/3 401/2/3
f 409/3/3 401/3/3 408/3/3
f 410/3/3 403/3/3 402/3/3
f 410/2/3 402/2/3 409/2/3
f 411/2/3 404/2/3 403/2/3
f 411/3/3 403/3/3 410/3/3
f 412/3/3 405/3/3 404/3/3
f 412/2/3 404/2/3 411/2/3
f 413/2/3 406/2/3 405/2/3
f 413/3/3 405/3/3 412/3/3
f 414/3/3 407/3/3 406/3/3
f 414/2/3 406/2/3 413/2/3
f 415/3/3 407/3/3 414/3/3
f 416/2/3 409/2/3 408/2/3
f 416/2/3 410/2/3 409/2/3
f 416/2/3 415/2/3 414/2/3
f 416/2/3 414/2/3 413/2/3
f 416/2/3 413/2/3 412/2/3
f 416/2/3 412/2/3 411/2/3
f 416/2/3 411/2/3 410/2/3
f 417/2/3 415/2/3 416/2/3
f 418/2/3 415/2/3 417/2/3
f 419/2/3 415/2/3 418/2/3
f 420/2/3 415/2/3 419/2/3
f 421/2/3 415/2/3 420/2/3
f 422/2/3 415/2/3 421/2/3
f 423/2/3 415/2/3 422/2/3
f 424/3/3 417/3/3 416/3/3
f 425/2/3 418/2/3 417/2/3
f 425/3/3 417/3/3 424/3/3
f 426/3/3 419/3/3 418/3/3
f 426/2/3 418/2/3 425/2/3
f 427/2/3 420/2/3 419/2/3
f 427/3/3 419/3/3 426/3/3
f 428/3/3 421/3/3 420/3/3
f 428/2/3 420/2/3 427/2/3
f 429/2/3 422/2/3 421/2/3
f 429/3/3 421/3/3 428/3/3
f 430/3/3 423/3/3 422/3/3
f 430/2/3 422/2/3 429/2/3
f 431/3/3 423/3/3 430/3/3
f 432/2/3 425/2/3 424/2/3
f 432/2/3 426/2/3 425/2/3
f 432/2/3 431/2/3 430/2/3
f 432/2/3 430/2/3 429/2/3
f 432/2/3 429/2/3 428/2/3
f 432/2/3 428/2/3 427/2/3
f 432/2/3 427/2/3 426/2/3
f 433/2/3 431/2/3 432/2/3
f 434/2/3 431/2/3 433/2/3
f 435/2/3 431/2/3 434/2/3
f 436/2/3 431/2/3 435/2/3
f 437/2/3 431/2/3 436/2/3
f 438/2/3 431/2/3 437/2/3
f 439/2/3 431/2/3 438/2/3
f 440/3/3 433/3/3 432/3/3
f 441/2/3 434/2/3 433/2/3
f 441/3/3 433/3/3 440/3/3
f 442/3/3 435/3/3 434/3/3
f 442/2/3 434/2/3 441/2/3
f 443/2/3 436/2/3 435/2/3
f 443/3/3 435/3/3 442/3/3
f 444/3/3 437/3/3 436/3/3
f 444/2/3 436/2/3 443/2/3
f 445/2/3 438/2/3 437/2/3
f 445/3/3 437/3/3 444/3/3
f 446/3/3 439/3/3 438/3/3
f 446/2/3 438/2/3 445/2/3
f 447/3/3 439/3/3 446/3/3
f 448/2/3 441/2/3 440/2/3
f 448/2/3 442/2/3 441/2/3
f 448/2/3 447/2/3 446/2/3
f 448/2/3 446/2/3 445/2/3
f 448/2/3 445/2/3 444/2/3
f 448/2/3 444/2/3 443/2/3
f 448/2/3 443/2/3 442/2/3
f 449/2/3 447/2/3 448/2/3
f 450/2/3 447/2/3 449/2/3
f 451/2/3 447/2/3 450/2/3
f 452/2/3 447/2/3 451/2/3
f 453/2/3 447/2/3 452/2/3
f 454/2/3 447/2/3 453/2/3
f 455/2/3 447/2/3 454/2/3
f 456/3/3 449/3/3 448/3/3
f 457/2/3 450/2/3 449/2/3
f 457/3/3 449/3/3 456/3/3
f 458/3/3 451/3/3 450/3/3
f 458/2/3 450/2/3 457/2/3
f 459/2/3 452/2/3 451/2/3
f 459/3/3 451/3/3 458/3/3
f 460/3/3 453/3/3 452/3/3
f 460/2/3 452/2/3 459/2/3
f 461/2/3 454/2/3 453/2/3
f 461/3/3 453/3/3 460/3/3
f 462/3/3 455/3/3 454/3/3
f 462/2/3 454/2/3 461/2/3
f 463/3/3 455/3/3 462/3/3
f 464/2/3 457/2/3 456/2/3
f 464/2/3 458/2/3 457/2/3
f 464/2/3 463/2/3 462/2/3
f 464/2/3 462/2/3 461/2/3
f 464/2/3 461/2/3 460/2/3
f 464/2/3 460/2/3 459/2/3
f 464/2/3 459/2/3 458/2/3
f 465/2/3 463/2/3 464/2/3
f 466/2/3 463/2/3 465/2/3
f 467/2/3 463/2/3 466/2/3
f 468/2/3 463/2/3 467/2/3
f 469/2/3 463/2/3 468/2/3
f 470/2/3 463/2/3 469/2/3
f 471/2/3 463/2/3 470/2/3
f 472/3/3 465/3/3 464/3/3
f 473/2/3 466/2/3 465/2/3
f 473/3/3 465/3/3 472/3/3
f 474/3/3 467/3/3 466/3/3
f 474/2/3 466/2/3 473/2/3
f 475/3/3 467/3/3 474/3/3
f 476/3/3 467/3/3 475/3/3
f 477/2/3 468/2/3 467/2/3
f 477/3/3 467/3/3 476/3/3
f 478/3/3 469/3/3 468/3/3
f 478/2/3 468/2/3 477/2/3
f 479/2/3 470/2/3 469/2/3
f 479/3/3 469/3/3 478/3/3
f 480/3/3 471/3/3 470/3/3
f 480/2/3 470/2/3 479/2/3
f 481/3/3 471/3/3 480/3/3
f 482/2/3 473/2/3 472/2/3
f 482/2/3 474/2/3 473/2/3
f 482/2/3 475/2/3 474/2/3
f 483/2/3 475/2/3 482/2/3
f 484/2/3 481/2/3 480/2/3
f 484/2/3 477/2/3 476/2/3
f 484/2/3 478/2/3 477/2/3
f 484/2/3 480/2/3 479/2/3
f 484/2/3 479/2/3 478/2/3
f 485/2/3 481/2/3 484/2/3
f 486/2/3 481/2/3 485/2/3
f 487/2/3 481/2/3 486/2/3
f 488/2/3 481/2/3 487/2/3
f 489/2/3 481/2/3 488/2/3
f 490/2/3 481/2/3 489/2/3
f 491/3/3 483/3/3 482/3/3
f 491/3/3 484/3/3 483/3/3
f 492/2/3 485/2/3 484/2/3
f 492/3/3 484/3/3 491/3/3
f 493/3/3 486/3/3 485/3/3
f 493/2/3 485/2/3 492/2/3
f 494/2/3 487/2/3 486/2/3
f 494/3/3 486/3/3 493/3/3
f 495/3/3 488/3/3 487/3/3
f 495/2/3 487/2/3 494/2/3
f 496/2/3 489/2/3 488/2/3
f 496/3/3 488/3/3 495/3/3
f 497/3/3 490/3/3 489/3/3
f 497/2/3 489/2/3 496/2/3
f 498/3/3 490/3/3 497/3/3
f 499/2/3 496/2/3 495/2/3
f 499/2/3 492/2/3 491/2/3
f 499/2/3 498/2/3 497/2/3
f 499/2/3 497/2/3 496/2/3
f 499/2/3 495/2/3 494/2/3
f 499/2/3 494/2/3 493/2/3
f 499/2/3 493/2/3 492/2/3
f 500/2/3 498/2/3 499/2/3
f 501/2/3 498/2/3 500/2/3
f 502/2/3 498/2/3 501/2/3
f 503/2/3 498/2/3 502/2/3
f 504/2/3 498/2/3 503/2/3
f 505/2/3 498/2/3 504/2/3
f 506/2/3 498/2/3 505/2/3
f 507/3/3 500/3/3 499/3/3
f 508/2/3 501/2/3 500/2/3
f 508/3/3 500/3/3 507/3/3
f 509/3/3 502/3/3 501/3/3
f 509/2/3 501/2/3 508/2/3
f 510/2/3 503/2/3 502/2/3
f 510/3/3 502/3/3 509/3/3
f 511/3/3 504/3/3 503/3/3
f 511/2/3 503/2/3 510/2/3
f 512/2/3 505/2/3 504/2/3
f 512/3/3 504/3/3 511/3/3
f 513/3/3 506/3/3 505/3/3
f 513/2/3 505/2/3 512/2/3
f 514/3/3 506/3/3 513/3/3
f 515/2/3 508/2/3 507/2/3
f 515/2/3 509/2/3 508/2/3
f 515/2/3 514/2/3 513/2/3
f 515/2/3 513/2/3 512/2/3
f 515/2/3 512/2/3 511/2/3
f 515/2/3 511/2/3 510/2/3
f 515/2/3 510/2/3 509/2/3
f 516/2/3 514/2/3 515/2/3
f 517/2/3 514/2/3 516/2/3
f 518/2/3 514/2/3 517/2/3
f 519/2/3 514/2/3 518/2/3
f 520/2/3 514/2/3 519/2/3
f 521/2/3 514/2/3 520/2/3
f 522/2/3 514/2/3 521/2/3
f 523/3/3 516/3/3 515/3/3
f 524/2/3 517/2/3 516/2/3
f 524/3/3 516/3/3 523/3/3
f 525/3/3 518/3/3 517/3/3
f 525/2/3 517/2/3 524/2/3
f 526/2/3 519/2/3 518/2/3
f 526/3/3 518/3/3 525/3/3
f 527/3/3 520/3/3 519/3/3
f 527/2/3 519/2/3 526/2/3
f 528/2/3 521/2/3 520/2/3
f 528/3/3 520/3/3 527/3/3
f 529/3/3 522/3/3 521/3/3
f 529/2/3 521/2/3 528/2/3
f 530/3/3 522/3/3 529/3/3
f 533/3/3 532/3/3 531/3/3
f 534/3/3 532/3/3 533/3/3
f 537/3/3 536/3/3 535/3/3
f 538/3/3 536/3/3 537/3/3
f 539/3/3 536/3/3 538/3/3
f 540/3/3 536/3/3 539/3/3
f 543/3/3 542/3/3 541/3/3
f 544/3/3 542/3/3 543/3/3
f 545/3/3 542/3/3 544/3/3
f 546/3/3 542/3/3 545/3/3
f 549/3/3 548/3/3 547/3/3
f 550/3/3 548/3/3 549/3/3
f 553/3/3 552/3/3 551/3/3
f 554/3/3 552/3/3 553/3/3
f 557/1/3 556/1/3 555/1/3
f 558/1/3 556/1/3 557/1/3
f 561/3/3 560/3/3 559/3/3
f 562/3/3 560/3/3 561/3/3
f 565/1/3 564/1/3 563/1/3
f 566/1/3 564/1/3 565/1/3
f 569/1/3 568/1/3 567/1/3
f 570/1/3 568/1/3 569/1/3
f 573/1/3 572/1/3 571/1/3
f 574/1/3 572/1/3 573/1/3
f 577/1/3 576/1/3 575/1/3
f 578/1/3 576/1/3 577/1/3
f 581/1/3 580/1/3 579/1/3
f 582/1/3 580/1/3 581/1/3
f 585/1/3 584/1/3 583/1/3
f 586/1/3 584/1/3 585/1/3
f 589/1/3 588/1/3 587/1/3
f 590/1/3 588/1/3 589/1/3
f 593/1/3 592/1/3 591/1/3
f 594/1/3 592/1/3 593/1/3
f 597/1/3 596/1/3 595/1/3
f 598/1/3 596/1/3 597/1/3
f 601/1/3 600/1/3 599/1/3
f 602/1/3 600/1/3 601/1/3
f 605/1/3 604/1/3 603/1/3
f 606/1/3 604/1/3 605/1/3
f 609/1/3 608/1/3 607/1/3
f 610/1/3 608/1/3 609/1/3
f 611/1/4 612/1/4 613/1/4
f 613/1/4 612/1/4 614/1/4
f 615/1/4 616/1/4 617/1/4
f 617/1/4 616/1/4 618/1/4
f 619/1/4 620/1/4 621/1/4
f 621/1/4 620/1/4 622/1/4
f 619/1/4 621/1/4 623/1/4
f 619/1/4 623/1/4 625/1/4
f 623/1/4 624/1/4 625/1/4
f 625/1/4 624/1/4 626/1/4
f 619/1/4 625/1/4 627/1/4
f 619/1/4 627/1/4 629/1/4
f 627/1/4 628/1/4 629/1/4
f 629/1/4 628/1/4 630/1/4
f 631/1/4 632/1/4 633/1/4
f 633/1/4 632/1/4 634/1/4
f 635/1/4 636/1/4 637/1/4
f 637/1/4 636/1/4 638/1/4
f 638/1/4 636/1/4 639/1/4
f 639/1/4 636/1/4 640/1/4
f 641/3/4 642/3/4 643/3/4
f 643/3/4 642/3/4 644/3/4
f 644/3/4 642/3/4 645/3/4
f 645/3/4 642/3/4 646/3/4
f 647/3/4 648/3/4 649/3/4
f 649/3/4 648/3/4 650/3/4
f 651/3/4 652/3/4 653/3/4
f 653/3/4 652/3/4 654/3/4
f 655/1/4 656/1/4 657/1/4
f 657/1/4 656/1/4 658/1/4
f 659/3/4 660/3/4 661/3/4
f 661/3/4 660/3/4 662/3/4
f 665/1/4 666/1/4 667/1/4
f 667/1/4 666/1/4 668/1/4
f 663/3/4 664/3/4 669/3/4
f 669/3/4 664/3/4 670/3/4
f 671/1/4 672/1/4 673/1/4
f 673/1/4 672/1/4 674/1/4
f 675/1/4 676/1/4 677/1/4
f 677/1/4 676/1/4 678/1/4
f 679/1/4 680/1/4 681/1/4
f 681/1/4 680/1/4 682/1/4
f 683/1/4 684/1/4 685/1/4
f 685/1/4 684/1/4 686/1/4
f 687/1/4 688/1/4 689/1/4
f 689/1/4 688/1/4 690/1/4
f 691/1/4 692/1/4 693/1/4
f 693/1/4 692/1/4 694/1/4
f 695/1/4 696/1/4 697/1/4
f 697/1/4 696/1/4 698/1/4
f 699/1/4 700/1/4 701/1/4
f 701/1/4 700/1/4 702/1/4
f 703/1/4 704/1/4 705/1/4
f 705/1/4 704/1/4 706/1/4
f 707/1/4 708/1/4 709/1/4
f 709/1/4 708/1/4 710/1/4
f 711/1/4 712/1/4 713/1/4
f 713/1/4 712/1/4 714/1/4
f 715/3/4 716/3/4 717/3/4
f 717/3/4 716/3/4 718/3/4
f 719/3/4 720/3/4 721/3/4
f 721/3/4 720/3/4 722/3/4
f 723/1/4 724/1/4 725/1/4
f 725/1/4 724/1/4 726/1/4
f 727/1/4 728/1/4 729/1/4
f 729/1/4 728/1/4 730/1/4
f 735/1/5 732/1/5 731/1/5
f 736/1/5 732/1/5 735/1/5
f 737/1/5 734/1/5 733/1/5
f 738/1/5 734/1/5 737/1/5
f 767/3/5 740/3/5 739/3/5
f 767/2/5 741/2/5 740/2/5
f 768/3/5 742/3/5 741/3/5
f 768/2/5 741/2/5 767/2/5
f 769/2/5 743/2/5 742/2/5
f 769/3/5 742/3/5 768/3/5
f 770/3/5 744/3/5 743/3/5
f 770/2/5 743/2/5 769/2/5
f 771/2/5 745/2/5 744/2/5
f 771/3/5 744/3/5 770/3/5
f 772/3/5 746/3/5 745/3/5
f 772/2/5 745/2/5 771/2/5
f 773/2/5 747/2/5 746/2/5
f 773/3/5 746/3/5 772/3/5
f 774/3/5 748/3/5 747/3/5
f 774/2/5 747/2/5 773/2/5
f 775/2/5 749/2/5 748/2/5
f 775/3/5 748/3/5 774/3/5
f 776/3/5 750/3/5 749/3/5
f 776/2/5 749/2/5 775/2/5
f 777/2/5 751/2/5 750/2/5
f 777/3/5 750/3/5 776/3/5
f 778/3/5 752/3/5 751/3/5
f 778/2/5 751/2/5 777/2/5
f 779/2/5 753/2/5 752/2/5
f 779/3/5 752/3/5 778/3/5
f 780/3/5 754/3/5 753/3/5
f 780/2/5 753/2/5 779/2/5
f 781/2/5 755/2/5 754/2/5
f 781/3/5 754/3/5 780/3/5
f 782/3/5 756/3/5 755/3/5
f 782/2/5 755/2/5 781/2/5
f 783/2/5 757/2/5 756/2/5
f 783/3/5 756/3/5 782/3/5
f 784/3/5 758/3/5 757/3/5
f 784/2/5 757/2/5 783/2/5
f 785/2/5 759/2/5 758/2/5
f 785/3/5 758/3/5 784/3/5
f 786/3/5 760/3/5 759/3/5
f 786/2/5 759/2/5 785/2/5
f 787/2/5 761/2/5 760/2/5
f 787/3/5 760/3/5 786/3/5
f 788/3/5 762/3/5 761/3/5
f 788/2/5 761/2/5 787/2/5
f 789/2/5 763/2/5 762/2/5
f 789/3/5 762/3/5 788/3/5
f 790/3/5 764/3/5 763/3/5
f 790/2/5 763/2/5 789/2/5
f 791/2/5 765/2/5 764/2/5
f 791/3/5 764/3/5 790/3/5
f 792/3/5 766/3/5 765/3/5
f 792/2/5 765/2/5 791/2/5
f 793/3/5 786/3/5 785/3/5
f 793/3/5 791/3/5 790/3/5
f 793/3/5 792/3/5 791/3/5
f 793/3/5 789/3/5 788/3/5
f 793/3/5 788/3/5 787/3/5
f 793/3/5 787/3/5 786/3/5
f 793/3/5 785/3/5 784/3/5
f 793/3/5 784/3/5 783/3/5
f 793/3/5 783/3/5 782/3/5
f 793/3/5 782/3/5 781/3/5
f 793/3/5 781/3/5 780/3/5
f 793/3/5 780/3/5 779/3/5
f 793/3/5 779/3/5 778/3/5
f 793/3/5 778/3/5 777/3/5
f 793/3/5 777/3/5 776/3/5
f 793/3/5 776/3/5 775/3/5
f 793/3/5 775/3/5 774/3/5
f 793/3/5 774/3/5 773/3/5
f 793/3/5 773/3/5 772/3/5
f 793/3/5 772/3/5 771/3/5
f 793/3/5 771/3/5 770/3/5
f 793/3/5 770/3/5 769/3/5
f 793/3/5 769/3/5 768/3/5
f 793/3/5 768/3/5 767/3/5
f 793/3/5 767/3/5 739/3/5
f 793/3/5 790/3/5 789/3/5
f 794/3/5 766/3/5 792/3/5
f 794/3/5 792/3/5 793/3/5
f 795/3/5 793/3/5 739/3/5
f 796/3/5 793/3/5 795/3/5
f 797/3/5 766/3/5 794/3/5
f 798/3/5 766/3/5 797/3/5
f 801/1/5 800/1/5 799/1/5
f 802/1/5 800/1/5 801/1/5
f 803/1/5 800/1/5 802/1/5
f 804/1/5 800/1/5 803/1/5
f 805/1/5 801/1/5 799/1/5
f 806/1/5 803/1/5 802/1/5
f 807/1/5 803/1/5 806/1/5
f 808/1/5 800/1/5 804/1/5
f 809/1/5 807/1/5 806/1/5
f 809/1/5 808/1/5 807/1/5
f 809/1/5 805/1/5 799/1/5
f 809/1/5 806/1/5 805/1/5
f 810/1/5 800/1/5 808/1/5
f 810/1/5 808/1/5 809/1/5
f 813/1/5 812/1/5 811/1/5
f 814/1/5 812/1/5 813/1/5
f 819/1/5 816/1/5 815/1/5
f 820/1/5 816/1/5 819/1/5
f 821/1/5 818/1/5 817/1/5
f 822/1/5 818/1/5 821/1/5
f 825/1/5 824/1/5 823/1/5
f 826/1/5 824/1/5 825/1/5
f 827/1/5 824/1/5 826/1/5
f 828/1/5 824/1/5 827/1/5
f 829/1/5 824/1/5 828/1/5
f 830/1/5 824/1/5 829/1/5
f 831/1/5 824/1/5 830/1/5
f 832/1/5 824/1/5 831/1/5
f 833/1/5 824/1/5 832/1/5
f 834/1/5 824/1/5 833/1/5
f 835/1/5 824/1/5 834/1/5
f 836/1/5 824/1/5 835/1/5
f 837/1/5 824/1/5 836/1/5
f 838/1/5 824/1/5 837/1/5
f 839/1/5 824/1/5 838/1/5
f 840/1/5 824/1/5 839/1/5
f 841/1/5 824/1/5 840/1/5
f 842/1/5 824/1/5 841/1/5
f 843/1/5 824/1/5 842/1/5
f 844/1/5 824/1/5 843/1/5
f 845/1/5 824/1/5 844/1/5
f 846/1/5 824/1/5 845/1/5
f 847/1/5 824/1/5 846/1/5
f 848/1/5 824/1/5 847/1/5
f 849/1/5 824/1/5 848/1/5
f 850/1/5 824/1/5 849/1/5
f 851/1/5 824/1/5 850/1/5
f 852/1/5 824/1/5 851/1/5
f 856/3/5 854/3/5 853/3/5
f 857/3/5 854/3/5 856/3/5
f 859/1/5 856/1/5 855/1/5
f 859/1/5 858/1/5 857/1/5
f 859/1/5 857/1/5 856/1/5
f 860/1/5 858/1/5 859/1/5
f 863/1/5 862/1/5 861/1/5
f 864/1/5 862/1/5 863/1/5
f 867/3/5 866/3/5 865/3/5
f 868/3/5 866/3/5 867/3/5
f 871/3/5 870/3/5 869/3/5
f 872/3/5 870/3/5 871/3/5
f 875/3/5 874/3/5 873/3/5
f 876/3/5 874/3/5 875/3/5
f 879/1/5 878/1/5 877/1/5
f 880/1/5 878/1/5 879/1/5
f 883/1/5 882/1/5 881/1/5
f 884/1/5 882/1/5 883/1/5
f 887/1/5 886/1/5 885/1/5
f 888/1/5 886/1/5 887/1/5
f 891/1/5 890/1/5 889/1/5
f 892/1/5 890/1/5 891/1/5
f 895/1/5 894/1/5 893/1/5
f 896/1/5 894/1/5 895/1/5
f 899/1/5 898/1/5 897/1/5
f 900/1/5 898/1/5 899/1/5
f 903/1/5 902/1/5 901/1/5
f 904/1/5 902/1/5 903/1/5
f 907/1/5 906/1/5 905/1/5
f 908/1/5 906/1/5 907/1/5
f 911/1/5 910/1/5 909/1/5
f 912/1/5 910/1/5 911/1/5
f 915/1/5 914/1/5 913/1/5
f 916/1/5 914/1/5 915/1/5
f 919/1/5 918/1/5 917/1/5
f 920/1/5 918/1/5 919/1/5
f 923/1/5 922/1/5 921/1/5
f 924/1/5 922/1/5 923/1/5
f 927/1/5 926/1/5 925/1/5
f 928/1/5 926/1/5 927/1/5
f 931/1/5 930/1/5 929/1/5
f 932/1/5 930/1/5 931/1/5
f 935/1/5 934/1/5 933/1/5
f 936/1/5 934/1/5 935/1/5
f 939/1/5 938/1/5 937/1/5
f 940/1/5 938/1/5 939/1/5
f 941/1/6 942/1/6 943/1/6
f 943/1/6 942/1/6 944/1/6
f 945/1/6 946/1/6 947/1/6
f 947/1/6 946/1/6 948/1/6
f 948/1/6 946/1/6 949/1/6
f 949/1/6 946/1/6 950/1/6
f 950/1/6 946/1/6 951/1/6
f 951/1/6 946/1/6 952/1/6
f 948/1/6 949/1/6 953/1/6
f 953/1/6 949/1/6 954/1/6
f 950/1/6 951/1/6 955/1/6
f 955/1/6 951/1/6 956/1/6
f 957/3/6 958/3/6 963/3/6
f 958/2/6 959/2/6 964/2/6
f 963/3/6 958/3/6 964/3/6
f 959/3/6 960/3/6 965/3/6
f 964/2/6 959/2/6 965/2/6
f 965/3/6 960/3/6 966/3/6
f 961/3/6 962/3/6 969/3/6
f 969/3/6 962/3/6 970/3/6
f 967/3/6 968/3/6 971/3/6
f 971/3/6 968/3/6 972/3/6
f 973/3/6 974/3/6 975/3/6
f 975/3/6 974/3/6 976/3/6
f 977/3/6 978/3/6 979/3/6
f 979/3/6 978/3/6 980/3/6
f 981/3/6 982/3/6 983/3/6
f 983/3/6 982/3/6 984/3/6
f 985/3/6 986/3/6 987/3/6
f 987/3/6 986/3/6 988/3/6
f 989/3/6 990/3/6 991/3/6
f 991/3/6 990/3/6 992/3/6
f 993/3/6 994/3/6 995/3/6
f 995/3/6 994/3/6 996/3/6
f 997/3/6 998/3/6 999/3/6
f 999/3/6 998/3/6 1000/3/6
f 1001/3/6 1002/3/6 1003/3/6
f 1003/3/6 1002/3/6 1004/3/6
f 1005/1/6 1006/1/6 1007/1/6
f 1007/1/6 1006/1/6 1008/1/6
f 1009/1/6 1010/1/6 1011/1/6
f 1011/1/6 1010/1/6 1012/1/6
f 1013/1/6 1014/1/6 1015/1/6
f 1015/1/6 1014/1/6 1016/1/6
f 1017/1/6 1018/1/6 1019/1/6
f 1019/1/6 1018/1/6 1020/1/6
f 1021/1/6 1022/1/6 1023/1/6
f 1023/1/6 1022/1/6 1024/1/6
f 1025/1/6 1026/1/6 1027/1/6
f 1027/1/6 1026/1/6 1028/1/6
f 1029/1/6 1030/1/6 1031/1/6
f 1031/1/6 1030/1/6 1032/1/6
f 1033/1/6 1034/1/6 1035/1/6
f 1035/1/6 1034/1/6 1036/1/6
f 1037/1/6 1038/1/6 1039/1/6
f 1039/1/6 1038/1/6 1040/1/6
f 1041/1/6 1042/1/6 1043/1/6
f 1043/1/6 1042/1/6 1044/1/6
f 1045/1/6 1046/1/6 1047/1/6
f 1047/1/6 1046/1/6 1048/1/6
f 1049/1/6 1050/1/6 1051/1/6
f 1051/1/6 1050/1/6 1052/1/6
