# MagicaVoxel @ Ephtracy

# group
o 

# material
mtllib Tiny Vodka.mtl
usemtl palette

# normals
vn -1 0 0
vn 1 0 0
vn 0 0 1
vn 0 0 -1
vn 0 -1 0
vn 0 1 0

# texcoords
vt 0.857422 0.5
vt 0.958984 0.5
vt 0.970703 0.5

# verts
v -0.2 0 0.1
v -0.2 0 -0.3
v -0.2 0.1 0.1
v -0.2 0.1 -1.49012e-08
v -0.2 0.1 -0.2
v -0.2 0.1 -0.3
v -0.2 0.6 0.1
v -0.2 0.6 -1.49012e-08
v -0.2 0.6 -0.2
v -0.2 0.6 -0.3
v -0.2 0.9 -0.2
v -0.2 0.9 -0.3
v -0.2 1 -0.2
v -0.2 1 -0.3
v -0.2 1.2 0.1
v -0.2 1.2 -1.49012e-08
v -0.2 1.2 -0.2
v -0.2 1.2 -0.3
v -0.2 1.3 -1.49012e-08
v -0.2 1.3 -0.2
v -0.1 0.1 0.1
v -0.1 0.1 -1.49012e-08
v -0.1 0.1 -0.2
v -0.1 0.1 -0.3
v -0.1 0.6 0.1
v -0.1 0.6 -1.49012e-08
v -0.1 0.6 -0.2
v -0.1 0.6 -0.3
v -0.1 1.2 0.1
v -0.1 1.2 -1.49012e-08
v -0.1 1.2 -0.2
v -0.1 1.2 -0.3
v -0.1 1.3 0.1
v -0.1 1.3 -1.49012e-08
v -0.1 1.3 -0.2
v -0.1 1.3 -0.3
v -0.1 1.4 -1.49012e-08
v -0.1 1.4 -0.2
v -0.1 1.6 -1.49012e-08
v -0.1 1.6 -0.2
v 0.1 0.1 0.1
v 0.1 0.1 -1.49012e-08
v 0.1 0.1 -0.2
v 0.1 0.1 -0.3
v 0.1 0.6 0.1
v 0.1 0.6 -1.49012e-08
v 0.1 0.6 -0.2
v 0.1 0.6 -0.3
v 0.1 1.2 0.1
v 0.1 1.2 -1.49012e-08
v 0.1 1.2 -0.2
v 0.1 1.2 -0.3
v 0.1 1.3 0.1
v 0.1 1.3 -1.49012e-08
v 0.1 1.3 -0.2
v 0.1 1.3 -0.3
v 0.1 1.4 -1.49012e-08
v 0.1 1.4 -0.2
v 0.1 1.6 -1.49012e-08
v 0.1 1.6 -0.2
v 0.2 0 0.1
v 0.2 0 -0.3
v 0.2 0.1 0.1
v 0.2 0.1 -1.49012e-08
v 0.2 0.1 -0.2
v 0.2 0.1 -0.3
v 0.2 0.6 0.1
v 0.2 0.6 -1.49012e-08
v 0.2 0.6 -0.2
v 0.2 0.6 -0.3
v 0.2 0.9 -0.2
v 0.2 0.9 -0.3
v 0.2 1 -0.2
v 0.2 1 -0.3
v 0.2 1.2 0.1
v 0.2 1.2 -1.49012e-08
v 0.2 1.2 -0.2
v 0.2 1.2 -0.3
v 0.2 1.3 -1.49012e-08
v 0.2 1.3 -0.2
v -0.2 0 0.1
v -0.2 0.1 0.1
v -0.2 0.6 0.1
v -0.2 1.2 0.1
v -0.1 0.1 0.1
v -0.1 0.6 0.1
v -0.1 1.2 0.1
v -0.1 1.3 0.1
v 0.1 0.1 0.1
v 0.1 0.6 0.1
v 0.1 1.2 0.1
v 0.1 1.3 0.1
v 0.2 0 0.1
v 0.2 0.1 0.1
v 0.2 0.6 0.1
v 0.2 1.2 0.1
v -0.2 0.1 -1.49012e-08
v -0.2 0.6 -1.49012e-08
v -0.2 1.2 -1.49012e-08
v -0.2 1.3 -1.49012e-08
v -0.1 0.1 -1.49012e-08
v -0.1 0.6 -1.49012e-08
v -0.1 1.2 -1.49012e-08
v -0.1 1.3 -1.49012e-08
v -0.1 1.4 -1.49012e-08
v -0.1 1.6 -1.49012e-08
v 0.1 0.1 -1.49012e-08
v 0.1 0.6 -1.49012e-08
v 0.1 1.2 -1.49012e-08
v 0.1 1.3 -1.49012e-08
v 0.1 1.4 -1.49012e-08
v 0.1 1.6 -1.49012e-08
v 0.2 0.1 -1.49012e-08
v 0.2 0.6 -1.49012e-08
v 0.2 1.2 -1.49012e-08
v 0.2 1.3 -1.49012e-08
v -0.2 0.1 -0.2
v -0.2 0.6 -0.2
v -0.2 1.2 -0.2
v -0.2 1.3 -0.2
v -0.1 0.1 -0.2
v -0.1 0.6 -0.2
v -0.1 1.2 -0.2
v -0.1 1.3 -0.2
v -0.1 1.4 -0.2
v -0.1 1.6 -0.2
v 0.1 0.1 -0.2
v 0.1 0.6 -0.2
v 0.1 1.2 -0.2
v 0.1 1.3 -0.2
v 0.1 1.4 -0.2
v 0.1 1.6 -0.2
v 0.2 0.1 -0.2
v 0.2 0.6 -0.2
v 0.2 1.2 -0.2
v 0.2 1.3 -0.2
v -0.2 0 -0.3
v -0.2 0.1 -0.3
v -0.2 0.6 -0.3
v -0.2 0.9 -0.3
v -0.2 1 -0.3
v -0.2 1.2 -0.3
v -0.1 0.1 -0.3
v -0.1 0.6 -0.3
v -0.1 0.7 -0.3
v -0.1 0.9 -0.3
v -0.1 1 -0.3
v -0.1 1.1 -0.3
v -0.1 1.2 -0.3
v -0.1 1.3 -0.3
v 0.1 0.1 -0.3
v 0.1 0.6 -0.3
v 0.1 0.7 -0.3
v 0.1 0.9 -0.3
v 0.1 1 -0.3
v 0.1 1.1 -0.3
v 0.1 1.2 -0.3
v 0.1 1.3 -0.3
v 0.2 0 -0.3
v 0.2 0.1 -0.3
v 0.2 0.6 -0.3
v 0.2 0.9 -0.3
v 0.2 1 -0.3
v 0.2 1.2 -0.3
v -0.2 0 0.1
v 0.2 0 0.1
v -0.2 0 -0.3
v 0.2 0 -0.3
v -0.2 0.6 0.1
v -0.1 0.6 0.1
v 0.1 0.6 0.1
v 0.2 0.6 0.1
v -0.2 0.6 -1.49012e-08
v -0.1 0.6 -1.49012e-08
v 0.1 0.6 -1.49012e-08
v 0.2 0.6 -1.49012e-08
v -0.2 0.6 -0.2
v -0.1 0.6 -0.2
v 0.1 0.6 -0.2
v 0.2 0.6 -0.2
v -0.2 0.6 -0.3
v -0.1 0.6 -0.3
v 0.1 0.6 -0.3
v 0.2 0.6 -0.3
v -0.2 0.1 0.1
v -0.1 0.1 0.1
v 0.1 0.1 0.1
v 0.2 0.1 0.1
v -0.2 0.1 -1.49012e-08
v -0.1 0.1 -1.49012e-08
v 0.1 0.1 -1.49012e-08
v 0.2 0.1 -1.49012e-08
v -0.2 0.1 -0.2
v -0.1 0.1 -0.2
v 0.1 0.1 -0.2
v 0.2 0.1 -0.2
v -0.2 0.1 -0.3
v -0.1 0.1 -0.3
v 0.1 0.1 -0.3
v 0.2 0.1 -0.3
v -0.2 1.2 0.1
v -0.1 1.2 0.1
v 0.1 1.2 0.1
v 0.2 1.2 0.1
v -0.2 1.2 -1.49012e-08
v -0.1 1.2 -1.49012e-08
v 0.1 1.2 -1.49012e-08
v 0.2 1.2 -1.49012e-08
v -0.2 1.2 -0.2
v -0.1 1.2 -0.2
v 0.1 1.2 -0.2
v 0.2 1.2 -0.2
v -0.2 1.2 -0.3
v -0.1 1.2 -0.3
v 0.1 1.2 -0.3
v 0.2 1.2 -0.3
v -0.1 1.3 0.1
v 0.1 1.3 0.1
v -0.2 1.3 -1.49012e-08
v -0.1 1.3 -1.49012e-08
v 0.1 1.3 -1.49012e-08
v 0.2 1.3 -1.49012e-08
v -0.2 1.3 -0.2
v -0.1 1.3 -0.2
v 0.1 1.3 -0.2
v 0.2 1.3 -0.2
v -0.1 1.3 -0.3
v 0.1 1.3 -0.3
v -0.1 1.6 -1.49012e-08
v 0.1 1.6 -1.49012e-08
v -0.1 1.6 -0.2
v 0.1 1.6 -0.2

# faces
f 3/3/1 2/3/1 1/3/1
f 4/3/1 2/3/1 3/3/1
f 5/3/1 2/3/1 4/3/1
f 6/3/1 2/3/1 5/3/1
f 8/3/1 5/3/1 4/3/1
f 9/3/1 5/3/1 8/3/1
f 11/3/1 8/3/1 7/3/1
f 11/3/1 10/3/1 9/3/1
f 11/3/1 9/3/1 8/3/1
f 12/3/1 10/3/1 11/3/1
f 13/3/1 11/3/1 7/3/1
f 13/1/1 12/1/1 11/1/1
f 14/1/1 12/1/1 13/1/1
f 15/3/1 13/3/1 7/3/1
f 15/3/1 14/3/1 13/3/1
f 16/3/1 14/3/1 15/3/1
f 17/3/1 14/3/1 16/3/1
f 18/3/1 14/3/1 17/3/1
f 19/3/1 17/3/1 16/3/1
f 20/3/1 17/3/1 19/3/1
f 25/3/1 22/3/1 21/3/1
f 26/3/1 22/3/1 25/3/1
f 27/3/1 24/3/1 23/3/1
f 28/3/1 24/3/1 27/3/1
f 33/3/1 30/3/1 29/3/1
f 34/3/1 30/3/1 33/3/1
f 35/3/1 32/3/1 31/3/1
f 36/3/1 32/3/1 35/3/1
f 37/3/1 35/3/1 34/3/1
f 38/3/1 35/3/1 37/3/1
f 39/1/1 38/1/1 37/1/1
f 40/1/1 38/1/1 39/1/1
f 41/3/2 42/3/2 45/3/2
f 45/3/2 42/3/2 46/3/2
f 43/3/2 44/3/2 47/3/2
f 47/3/2 44/3/2 48/3/2
f 49/3/2 50/3/2 53/3/2
f 53/3/2 50/3/2 54/3/2
f 51/3/2 52/3/2 55/3/2
f 55/3/2 52/3/2 56/3/2
f 54/3/2 55/3/2 57/3/2
f 57/3/2 55/3/2 58/3/2
f 57/1/2 58/1/2 59/1/2
f 59/1/2 58/1/2 60/1/2
f 61/3/2 62/3/2 63/3/2
f 63/3/2 62/3/2 64/3/2
f 64/3/2 62/3/2 65/3/2
f 65/3/2 62/3/2 66/3/2
f 64/3/2 65/3/2 68/3/2
f 68/3/2 65/3/2 69/3/2
f 67/3/2 68/3/2 71/3/2
f 69/3/2 70/3/2 71/3/2
f 68/3/2 69/3/2 71/3/2
f 71/3/2 70/3/2 72/3/2
f 67/3/2 71/3/2 73/3/2
f 71/1/2 72/1/2 73/1/2
f 73/1/2 72/1/2 74/1/2
f 67/3/2 73/3/2 75/3/2
f 73/3/2 74/3/2 75/3/2
f 75/3/2 74/3/2 76/3/2
f 76/3/2 74/3/2 77/3/2
f 77/3/2 74/3/2 78/3/2
f 76/3/2 77/3/2 79/3/2
f 79/3/2 77/3/2 80/3/2
f 85/3/3 82/3/3 81/3/3
f 86/3/3 84/3/3 83/3/3
f 87/3/3 84/3/3 86/3/3
f 89/3/3 85/3/3 81/3/3
f 89/3/3 88/3/3 87/3/3
f 89/3/3 87/3/3 86/3/3
f 89/3/3 86/3/3 85/3/3
f 90/3/3 88/3/3 89/3/3
f 91/3/3 88/3/3 90/3/3
f 92/3/3 88/3/3 91/3/3
f 93/3/3 89/3/3 81/3/3
f 94/3/3 89/3/3 93/3/3
f 95/3/3 91/3/3 90/3/3
f 96/3/3 91/3/3 95/3/3
f 101/3/3 98/3/3 97/3/3
f 102/3/3 98/3/3 101/3/3
f 103/3/3 100/3/3 99/3/3
f 104/3/3 100/3/3 103/3/3
f 110/3/3 105/3/3 104/3/3
f 111/1/3 106/1/3 105/1/3
f 111/3/3 105/3/3 110/3/3
f 112/1/3 106/1/3 111/1/3
f 113/3/3 108/3/3 107/3/3
f 114/3/3 108/3/3 113/3/3
f 115/3/3 110/3/3 109/3/3
f 116/3/3 110/3/3 115/3/3
f 117/3/4 118/3/4 121/3/4
f 121/3/4 118/3/4 122/3/4
f 119/3/4 120/3/4 123/3/4
f 123/3/4 120/3/4 124/3/4
f 124/3/4 125/3/4 130/3/4
f 125/1/4 126/1/4 131/1/4
f 130/3/4 125/3/4 131/3/4
f 131/1/4 126/1/4 132/1/4
f 127/3/4 128/3/4 133/3/4
f 133/3/4 128/3/4 134/3/4
f 129/3/4 130/3/4 135/3/4
f 135/3/4 130/3/4 136/3/4
f 137/3/4 138/3/4 143/3/4
f 139/3/4 140/3/4 144/3/4
f 144/3/4 140/3/4 145/3/4
f 140/1/4 141/1/4 146/1/4
f 145/3/4 140/3/4 146/3/4
f 141/3/4 142/3/4 147/3/4
f 146/1/4 141/1/4 147/1/4
f 147/3/4 142/3/4 148/3/4
f 148/3/4 142/3/4 149/3/4
f 137/3/4 143/3/4 151/3/4
f 144/3/4 145/3/4 151/3/4
f 143/3/4 144/3/4 151/3/4
f 151/3/4 145/3/4 152/3/4
f 145/2/4 146/2/4 153/2/4
f 152/3/4 145/3/4 153/3/4
f 146/3/4 147/3/4 154/3/4
f 153/2/4 146/2/4 154/2/4
f 147/1/4 148/1/4 155/1/4
f 154/3/4 147/3/4 155/3/4
f 149/3/4 150/3/4 156/3/4
f 155/1/4 148/1/4 156/1/4
f 148/3/4 149/3/4 156/3/4
f 156/3/4 150/3/4 157/3/4
f 157/3/4 150/3/4 158/3/4
f 137/3/4 151/3/4 159/3/4
f 159/3/4 151/3/4 160/3/4
f 153/3/4 154/3/4 161/3/4
f 152/3/4 153/3/4 161/3/4
f 154/1/4 155/1/4 162/1/4
f 161/3/4 154/3/4 162/3/4
f 156/3/4 157/3/4 163/3/4
f 162/1/4 155/1/4 163/1/4
f 155/3/4 156/3/4 163/3/4
f 163/3/4 157/3/4 164/3/4
f 167/3/5 166/3/5 165/3/5
f 168/3/5 166/3/5 167/3/5
f 173/3/5 170/3/5 169/3/5
f 174/3/5 170/3/5 173/3/5
f 175/3/5 172/3/5 171/3/5
f 176/3/5 172/3/5 175/3/5
f 181/3/5 178/3/5 177/3/5
f 182/3/5 178/3/5 181/3/5
f 183/3/5 180/3/5 179/3/5
f 184/3/5 180/3/5 183/3/5
f 185/3/6 186/3/6 189/3/6
f 189/3/6 186/3/6 190/3/6
f 187/3/6 188/3/6 191/3/6
f 191/3/6 188/3/6 192/3/6
f 193/3/6 194/3/6 197/3/6
f 197/3/6 194/3/6 198/3/6
f 195/3/6 196/3/6 199/3/6
f 199/3/6 196/3/6 200/3/6
f 201/3/6 202/3/6 205/3/6
f 205/3/6 202/3/6 206/3/6
f 203/3/6 204/3/6 207/3/6
f 207/3/6 204/3/6 208/3/6
f 209/3/6 210/3/6 213/3/6
f 213/3/6 210/3/6 214/3/6
f 211/3/6 212/3/6 215/3/6
f 215/3/6 212/3/6 216/3/6
f 217/3/6 218/3/6 220/3/6
f 220/3/6 218/3/6 221/3/6
f 219/3/6 220/3/6 223/3/6
f 223/3/6 220/3/6 224/3/6
f 221/3/6 222/3/6 225/3/6
f 225/3/6 222/3/6 226/3/6
f 224/3/6 225/3/6 227/3/6
f 227/3/6 225/3/6 228/3/6
f 229/1/6 230/1/6 231/1/6
f 231/1/6 230/1/6 232/1/6
