# MagicaVoxel @ Ephtracy

# group
o 

# material
mtllib Vodka.mtl
usemtl palette

# normals
vn -1 0 0
vn 1 0 0
vn 0 0 1
vn 0 0 -1
vn 0 -1 0
vn 0 1 0

# texcoords
vt 0.00195312 0.5
vt 0.181641 0.5
vt 0.853516 0.5
vt 0.857422 0.5
vt 0.958984 0.5
vt 0.962891 0.5
vt 0.970703 0.5
vt 0.978516 0.5

# verts
v -0.5 0 0.3
v -0.5 0 -0.2
v -0.5 0.2 0.3
v -0.5 0.2 -0.2
v -0.4 0 0.4
v -0.4 0 0.3
v -0.4 0 -0.2
v -0.4 0 -0.3
v -0.4 0.2 0.4
v -0.4 0.2 0.3
v -0.4 0.2 -0.2
v -0.4 0.2 -0.3
v -0.4 0.3 0.3
v -0.4 0.3 0.2
v -0.4 0.3 -0.1
v -0.4 0.3 -0.2
v -0.4 1.1 0.3
v -0.4 1.1 0.2
v -0.4 1.1 -0.1
v -0.4 1.1 -0.2
v -0.4 2 0.3
v -0.4 2 0.2
v -0.4 2 -0.1
v -0.4 2 -0.2
v -0.4 2.1 0.2
v -0.4 2.1 -0.1
v -0.3 0 0.5
v -0.3 0 0.4
v -0.3 0 -0.3
v -0.3 0 -0.4
v -0.3 0.2 0.5
v -0.3 0.2 0.4
v -0.3 0.2 0.3
v -0.3 0.2 -0.2
v -0.3 0.2 -0.3
v -0.3 0.2 -0.4
v -0.3 0.3 0.4
v -0.3 0.3 0.3
v -0.3 0.3 0.2
v -0.3 0.3 -0.1
v -0.3 0.3 -0.2
v -0.3 0.3 -0.3
v -0.3 1 0.4
v -0.3 1 0.3
v -0.3 1 -0.2
v -0.3 1 -0.3
v -0.3 1.1 0.3
v -0.3 1.1 0.2
v -0.3 1.1 -0.1
v -0.3 1.1 -0.2
v -0.3 1.2 0.4
v -0.3 1.2 0.3
v -0.3 1.6 0.4
v -0.3 1.6 0.3
v -0.3 1.7 0.4
v -0.3 1.7 0.3
v -0.3 1.8 0.4
v -0.3 1.8 0.3
v -0.3 2 0.4
v -0.3 2 0.3
v -0.3 2 0.2
v -0.3 2 -0.1
v -0.3 2 -0.2
v -0.3 2 -0.3
v -0.3 2.1 0.3
v -0.3 2.1 0.2
v -0.3 2.1 -0.1
v -0.3 2.1 -0.2
v -0.3 2.2 0.2
v -0.3 2.2 -0.1
v -0.2 0.3 0.4
v -0.2 0.3 0.3
v -0.2 0.3 -0.2
v -0.2 0.3 -0.3
v -0.2 0.4 0.4
v -0.2 0.4 0.3
v -0.2 1 0.4
v -0.2 1 0.3
v -0.2 1 -0.2
v -0.2 1 -0.3
v -0.2 2 0.4
v -0.2 2 0.3
v -0.2 2 -0.2
v -0.2 2 -0.3
v -0.2 2.1 0.4
v -0.2 2.1 0.3
v -0.2 2.1 0.2
v -0.2 2.1 -0.1
v -0.2 2.1 -0.2
v -0.2 2.1 -0.3
v -0.2 2.2 0.3
v -0.2 2.2 0.2
v -0.2 2.2 -0.1
v -0.2 2.2 -0.2
v -0.2 2.3 0.2
v -0.2 2.3 0.1
v -0.2 2.3 0
v -0.2 2.3 -0.1
v -0.2 2.4 0.1
v -0.2 2.4 0
v -0.2 2.5 0.1
v -0.2 2.5 0
v -0.2 2.7 0.1
v -0.2 2.7 0
v -0.1 2.3 0.2
v -0.1 2.3 0.1
v -0.1 2.3 0
v -0.1 2.3 -0.1
v -0.1 2.4 0.2
v -0.1 2.4 0.1
v -0.1 2.4 0
v -0.1 2.4 -0.1
v -0.1 2.5 0.2
v -0.1 2.5 0.1
v -0.1 2.5 0
v -0.1 2.5 -0.1
v -0.1 2.7 0.2
v -0.1 2.7 0.1
v -0.1 2.7 0
v -0.1 2.7 -0.1
v 0 2.3 0.2
v 0 2.3 0.1
v 0 2.3 0
v 0 2.3 -0.1
v 0 2.4 0.2
v 0 2.4 0.1
v 0 2.4 0
v 0 2.4 -0.1
v 0 2.5 0.2
v 0 2.5 0.1
v 0 2.5 0
v 0 2.5 -0.1
v 0 2.7 0.2
v 0 2.7 0.1
v 0 2.7 0
v 0 2.7 -0.1
v 0.1 0.3 0.4
v 0.1 0.3 0.3
v 0.1 0.3 -0.2
v 0.1 0.3 -0.3
v 0.1 0.4 0.4
v 0.1 0.4 0.3
v 0.1 1 0.4
v 0.1 1 0.3
v 0.1 1 -0.2
v 0.1 1 -0.3
v 0.1 2 0.4
v 0.1 2 0.3
v 0.1 2 -0.2
v 0.1 2 -0.3
v 0.1 2.1 0.4
v 0.1 2.1 0.3
v 0.1 2.1 0.2
v 0.1 2.1 -0.1
v 0.1 2.1 -0.2
v 0.1 2.1 -0.3
v 0.1 2.2 0.3
v 0.1 2.2 0.2
v 0.1 2.2 -0.1
v 0.1 2.2 -0.2
v 0.1 2.3 0.2
v 0.1 2.3 0.1
v 0.1 2.3 0
v 0.1 2.3 -0.1
v 0.1 2.4 0.1
v 0.1 2.4 0
v 0.1 2.5 0.1
v 0.1 2.5 0
v 0.1 2.7 0.1
v 0.1 2.7 0
v 0.2 0 0.5
v 0.2 0 0.4
v 0.2 0 -0.3
v 0.2 0 -0.4
v 0.2 0.2 0.5
v 0.2 0.2 0.4
v 0.2 0.2 0.3
v 0.2 0.2 -0.2
v 0.2 0.2 -0.3
v 0.2 0.2 -0.4
v 0.2 0.3 0.4
v 0.2 0.3 0.3
v 0.2 0.3 0.2
v 0.2 0.3 -0.1
v 0.2 0.3 -0.2
v 0.2 0.3 -0.3
v 0.2 1 0.4
v 0.2 1 0.3
v 0.2 1 -0.2
v 0.2 1 -0.3
v 0.2 1.1 0.3
v 0.2 1.1 0.2
v 0.2 1.1 -0.1
v 0.2 1.1 -0.2
v 0.2 1.2 0.4
v 0.2 1.2 0.3
v 0.2 1.6 0.4
v 0.2 1.6 0.3
v 0.2 1.7 0.4
v 0.2 1.7 0.3
v 0.2 1.8 0.4
v 0.2 1.8 0.3
v 0.2 2 0.4
v 0.2 2 0.3
v 0.2 2 0.2
v 0.2 2 -0.1
v 0.2 2 -0.2
v 0.2 2 -0.3
v 0.2 2.1 0.3
v 0.2 2.1 0.2
v 0.2 2.1 -0.1
v 0.2 2.1 -0.2
v 0.2 2.2 0.2
v 0.2 2.2 -0.1
v 0.3 0 0.4
v 0.3 0 0.3
v 0.3 0 -0.2
v 0.3 0 -0.3
v 0.3 0.2 0.4
v 0.3 0.2 0.3
v 0.3 0.2 -0.2
v 0.3 0.2 -0.3
v 0.3 0.3 0.3
v 0.3 0.3 0.2
v 0.3 0.3 -0.1
v 0.3 0.3 -0.2
v 0.3 1.1 0.3
v 0.3 1.1 0.2
v 0.3 1.1 -0.1
v 0.3 1.1 -0.2
v 0.3 2 0.3
v 0.3 2 0.2
v 0.3 2 -0.1
v 0.3 2 -0.2
v 0.3 2.1 0.2
v 0.3 2.1 -0.1
v 0.4 0 0.3
v 0.4 0 -0.2
v 0.4 0.2 0.3
v 0.4 0.2 -0.2
v -0.3 0 0.5
v -0.3 0.2 0.5
v 0.2 0 0.5
v 0.2 0.2 0.5
v -0.4 0 0.4
v -0.4 0.2 0.4
v -0.3 0 0.4
v -0.3 0.2 0.4
v -0.3 0.3 0.4
v -0.3 1 0.4
v -0.3 1.2 0.4
v -0.3 1.6 0.4
v -0.3 1.7 0.4
v -0.3 1.8 0.4
v -0.3 2 0.4
v -0.2 0.3 0.4
v -0.2 0.4 0.4
v -0.2 1 0.4
v -0.2 1.1 0.4
v -0.2 1.2 0.4
v -0.2 1.3 0.4
v -0.2 1.5 0.4
v -0.2 1.7 0.4
v -0.2 1.8 0.4
v -0.2 1.9 0.4
v -0.2 2 0.4
v -0.2 2.1 0.4
v -0.1 1.2 0.4
v -0.1 1.3 0.4
v -0.1 1.5 0.4
v -0.1 1.6 0.4
v 0 1.2 0.4
v 0 1.3 0.4
v 0 1.5 0.4
v 0 1.6 0.4
v 0.1 0.3 0.4
v 0.1 0.4 0.4
v 0.1 1 0.4
v 0.1 1.1 0.4
v 0.1 1.2 0.4
v 0.1 1.3 0.4
v 0.1 1.5 0.4
v 0.1 1.7 0.4
v 0.1 1.8 0.4
v 0.1 1.9 0.4
v 0.1 2 0.4
v 0.1 2.1 0.4
v 0.2 0 0.4
v 0.2 0.2 0.4
v 0.2 0.3 0.4
v 0.2 1 0.4
v 0.2 1.2 0.4
v 0.2 1.6 0.4
v 0.2 1.7 0.4
v 0.2 1.8 0.4
v 0.2 2 0.4
v 0.3 0 0.4
v 0.3 0.2 0.4
v -0.5 0 0.3
v -0.5 0.2 0.3
v -0.4 0 0.3
v -0.4 0.2 0.3
v -0.4 0.3 0.3
v -0.4 1.1 0.3
v -0.4 2 0.3
v -0.3 0.2 0.3
v -0.3 0.3 0.3
v -0.3 1 0.3
v -0.3 1.1 0.3
v -0.3 1.2 0.3
v -0.3 1.6 0.3
v -0.3 1.7 0.3
v -0.3 1.8 0.3
v -0.3 2 0.3
v -0.3 2.1 0.3
v -0.2 0.3 0.3
v -0.2 0.4 0.3
v -0.2 1 0.3
v -0.2 2 0.3
v -0.2 2.1 0.3
v -0.2 2.2 0.3
v 0.1 0.3 0.3
v 0.1 0.4 0.3
v 0.1 1 0.3
v 0.1 2 0.3
v 0.1 2.1 0.3
v 0.1 2.2 0.3
v 0.2 0.2 0.3
v 0.2 0.3 0.3
v 0.2 1 0.3
v 0.2 1.1 0.3
v 0.2 1.2 0.3
v 0.2 1.6 0.3
v 0.2 1.7 0.3
v 0.2 1.8 0.3
v 0.2 2 0.3
v 0.2 2.1 0.3
v 0.3 0 0.3
v 0.3 0.2 0.3
v 0.3 0.3 0.3
v 0.3 1.1 0.3
v 0.3 2 0.3
v 0.4 0 0.3
v 0.4 0.2 0.3
v -0.4 0.3 0.2
v -0.4 1.1 0.2
v -0.4 2 0.2
v -0.4 2.1 0.2
v -0.3 0.3 0.2
v -0.3 1.1 0.2
v -0.3 2 0.2
v -0.3 2.1 0.2
v -0.3 2.2 0.2
v -0.2 2.1 0.2
v -0.2 2.2 0.2
v -0.2 2.3 0.2
v -0.1 2.3 0.2
v -0.1 2.4 0.2
v -0.1 2.5 0.2
v -0.1 2.7 0.2
v 0 2.3 0.2
v 0 2.4 0.2
v 0 2.5 0.2
v 0 2.7 0.2
v 0.1 2.1 0.2
v 0.1 2.2 0.2
v 0.1 2.3 0.2
v 0.2 0.3 0.2
v 0.2 1.1 0.2
v 0.2 2 0.2
v 0.2 2.1 0.2
v 0.2 2.2 0.2
v 0.3 0.3 0.2
v 0.3 1.1 0.2
v 0.3 2 0.2
v 0.3 2.1 0.2
v -0.2 2.3 0.1
v -0.2 2.4 0.1
v -0.2 2.5 0.1
v -0.2 2.7 0.1
v -0.1 2.3 0.1
v -0.1 2.4 0.1
v -0.1 2.5 0.1
v -0.1 2.7 0.1
v 0 2.3 0.1
v 0 2.4 0.1
v 0 2.5 0.1
v 0 2.7 0.1
v 0.1 2.3 0.1
v 0.1 2.4 0.1
v 0.1 2.5 0.1
v 0.1 2.7 0.1
v -0.2 2.3 0
v -0.2 2.4 0
v -0.2 2.5 0
v -0.2 2.7 0
v -0.1 2.3 0
v -0.1 2.4 0
v -0.1 2.5 0
v -0.1 2.7 0
v 0 2.3 0
v 0 2.4 0
v 0 2.5 0
v 0 2.7 0
v 0.1 2.3 0
v 0.1 2.4 0
v 0.1 2.5 0
v 0.1 2.7 0
v -0.4 0.3 -0.1
v -0.4 1.1 -0.1
v -0.4 2 -0.1
v -0.4 2.1 -0.1
v -0.3 0.3 -0.1
v -0.3 1.1 -0.1
v -0.3 2 -0.1
v -0.3 2.1 -0.1
v -0.3 2.2 -0.1
v -0.2 2.1 -0.1
v -0.2 2.2 -0.1
v -0.2 2.3 -0.1
v -0.1 2.3 -0.1
v -0.1 2.4 -0.1
v -0.1 2.5 -0.1
v -0.1 2.7 -0.1
v 0 2.3 -0.1
v 0 2.4 -0.1
v 0 2.5 -0.1
v 0 2.7 -0.1
v 0.1 2.1 -0.1
v 0.1 2.2 -0.1
v 0.1 2.3 -0.1
v 0.2 0.3 -0.1
v 0.2 1.1 -0.1
v 0.2 2 -0.1
v 0.2 2.1 -0.1
v 0.2 2.2 -0.1
v 0.3 0.3 -0.1
v 0.3 1.1 -0.1
v 0.3 2 -0.1
v 0.3 2.1 -0.1
v -0.5 0 -0.2
v -0.5 0.2 -0.2
v -0.4 0 -0.2
v -0.4 0.2 -0.2
v -0.4 0.3 -0.2
v -0.4 1.1 -0.2
v -0.4 2 -0.2
v -0.3 0.2 -0.2
v -0.3 0.3 -0.2
v -0.3 1 -0.2
v -0.3 1.1 -0.2
v -0.3 2 -0.2
v -0.3 2.1 -0.2
v -0.2 0.3 -0.2
v -0.2 1 -0.2
v -0.2 2 -0.2
v -0.2 2.1 -0.2
v -0.2 2.2 -0.2
v 0.1 0.3 -0.2
v 0.1 1 -0.2
v 0.1 2 -0.2
v 0.1 2.1 -0.2
v 0.1 2.2 -0.2
v 0.2 0.2 -0.2
v 0.2 0.3 -0.2
v 0.2 1 -0.2
v 0.2 1.1 -0.2
v 0.2 2 -0.2
v 0.2 2.1 -0.2
v 0.3 0 -0.2
v 0.3 0.2 -0.2
v 0.3 0.3 -0.2
v 0.3 1.1 -0.2
v 0.3 2 -0.2
v 0.4 0 -0.2
v 0.4 0.2 -0.2
v -0.4 0 -0.3
v -0.4 0.2 -0.3
v -0.3 0 -0.3
v -0.3 0.2 -0.3
v -0.3 0.3 -0.3
v -0.3 1 -0.3
v -0.3 2 -0.3
v -0.2 0.3 -0.3
v -0.2 1 -0.3
v -0.2 2 -0.3
v -0.2 2.1 -0.3
v 0.1 0.3 -0.3
v 0.1 1 -0.3
v 0.1 2 -0.3
v 0.1 2.1 -0.3
v 0.2 0 -0.3
v 0.2 0.2 -0.3
v 0.2 0.3 -0.3
v 0.2 1 -0.3
v 0.2 2 -0.3
v 0.3 0 -0.3
v 0.3 0.2 -0.3
v -0.3 0 -0.4
v -0.3 0.2 -0.4
v 0.2 0 -0.4
v 0.2 0.2 -0.4
v -0.3 0 0.5
v 0.2 0 0.5
v -0.4 0 0.4
v -0.3 0 0.4
v 0.2 0 0.4
v 0.3 0 0.4
v -0.5 0 0.3
v -0.4 0 0.3
v 0.3 0 0.3
v 0.4 0 0.3
v -0.5 0 -0.2
v -0.4 0 -0.2
v 0.3 0 -0.2
v 0.4 0 -0.2
v -0.4 0 -0.3
v -0.3 0 -0.3
v 0.2 0 -0.3
v 0.3 0 -0.3
v -0.3 0 -0.4
v 0.2 0 -0.4
v -0.3 1 0.4
v -0.2 1 0.4
v 0.1 1 0.4
v 0.2 1 0.4
v -0.3 1 0.3
v -0.2 1 0.3
v 0.1 1 0.3
v 0.2 1 0.3
v -0.3 1 -0.2
v -0.2 1 -0.2
v 0.1 1 -0.2
v 0.2 1 -0.2
v -0.3 1 -0.3
v -0.2 1 -0.3
v 0.1 1 -0.3
v 0.2 1 -0.3
v -0.4 1.1 0.3
v -0.3 1.1 0.3
v 0.2 1.1 0.3
v 0.3 1.1 0.3
v -0.4 1.1 0.2
v -0.3 1.1 0.2
v 0.2 1.1 0.2
v 0.3 1.1 0.2
v -0.4 1.1 -0.1
v -0.3 1.1 -0.1
v 0.2 1.1 -0.1
v 0.3 1.1 -0.1
v -0.4 1.1 -0.2
v -0.3 1.1 -0.2
v 0.2 1.1 -0.2
v 0.3 1.1 -0.2
v -0.3 0.2 0.5
v 0.2 0.2 0.5
v -0.4 0.2 0.4
v -0.3 0.2 0.4
v 0.2 0.2 0.4
v 0.3 0.2 0.4
v -0.5 0.2 0.3
v -0.4 0.2 0.3
v -0.3 0.2 0.3
v 0.2 0.2 0.3
v 0.3 0.2 0.3
v 0.4 0.2 0.3
v -0.5 0.2 -0.2
v -0.4 0.2 -0.2
v -0.3 0.2 -0.2
v 0.2 0.2 -0.2
v 0.3 0.2 -0.2
v 0.4 0.2 -0.2
v -0.4 0.2 -0.3
v -0.3 0.2 -0.3
v 0.2 0.2 -0.3
v 0.3 0.2 -0.3
v -0.3 0.2 -0.4
v 0.2 0.2 -0.4
v -0.3 0.3 0.4
v -0.2 0.3 0.4
v 0.1 0.3 0.4
v 0.2 0.3 0.4
v -0.4 0.3 0.3
v -0.3 0.3 0.3
v -0.2 0.3 0.3
v 0.1 0.3 0.3
v 0.2 0.3 0.3
v 0.3 0.3 0.3
v -0.4 0.3 0.2
v -0.3 0.3 0.2
v 0.2 0.3 0.2
v 0.3 0.3 0.2
v -0.4 0.3 -0.1
v -0.3 0.3 -0.1
v 0.2 0.3 -0.1
v 0.3 0.3 -0.1
v -0.4 0.3 -0.2
v -0.3 0.3 -0.2
v -0.2 0.3 -0.2
v 0.1 0.3 -0.2
v 0.2 0.3 -0.2
v 0.3 0.3 -0.2
v -0.3 0.3 -0.3
v -0.2 0.3 -0.3
v 0.1 0.3 -0.3
v 0.2 0.3 -0.3
v -0.3 2 0.4
v -0.2 2 0.4
v 0.1 2 0.4
v 0.2 2 0.4
v -0.4 2 0.3
v -0.3 2 0.3
v -0.2 2 0.3
v 0.1 2 0.3
v 0.2 2 0.3
v 0.3 2 0.3
v -0.4 2 0.2
v -0.3 2 0.2
v 0.2 2 0.2
v 0.3 2 0.2
v -0.4 2 -0.1
v -0.3 2 -0.1
v 0.2 2 -0.1
v 0.3 2 -0.1
v -0.4 2 -0.2
v -0.3 2 -0.2
v -0.2 2 -0.2
v 0.1 2 -0.2
v 0.2 2 -0.2
v 0.3 2 -0.2
v -0.3 2 -0.3
v -0.2 2 -0.3
v 0.1 2 -0.3
v 0.2 2 -0.3
v -0.2 2.1 0.4
v 0.1 2.1 0.4
v -0.3 2.1 0.3
v -0.2 2.1 0.3
v 0.1 2.1 0.3
v 0.2 2.1 0.3
v -0.4 2.1 0.2
v -0.3 2.1 0.2
v -0.2 2.1 0.2
v 0.1 2.1 0.2
v 0.2 2.1 0.2
v 0.3 2.1 0.2
v -0.4 2.1 -0.1
v -0.3 2.1 -0.1
v -0.2 2.1 -0.1
v 0.1 2.1 -0.1
v 0.2 2.1 -0.1
v 0.3 2.1 -0.1
v -0.3 2.1 -0.2
v -0.2 2.1 -0.2
v 0.1 2.1 -0.2
v 0.2 2.1 -0.2
v -0.2 2.1 -0.3
v 0.1 2.1 -0.3
v -0.2 2.2 0.3
v 0.1 2.2 0.3
v -0.3 2.2 0.2
v -0.2 2.2 0.2
v 0.1 2.2 0.2
v 0.2 2.2 0.2
v -0.3 2.2 -0.1
v -0.2 2.2 -0.1
v 0.1 2.2 -0.1
v 0.2 2.2 -0.1
v -0.2 2.2 -0.2
v 0.1 2.2 -0.2
v -0.2 2.3 0.2
v -0.1 2.3 0.2
v 0 2.3 0.2
v 0.1 2.3 0.2
v -0.2 2.3 0.1
v -0.1 2.3 0.1
v 0 2.3 0.1
v 0.1 2.3 0.1
v -0.2 2.3 0
v -0.1 2.3 0
v 0 2.3 0
v 0.1 2.3 0
v -0.2 2.3 -0.1
v -0.1 2.3 -0.1
v 0 2.3 -0.1
v 0.1 2.3 -0.1
v -0.1 2.7 0.2
v 0 2.7 0.2
v -0.2 2.7 0.1
v -0.1 2.7 0.1
v 0 2.7 0.1
v 0.1 2.7 0.1
v -0.2 2.7 0
v -0.1 2.7 0
v 0 2.7 0
v 0.1 2.7 0
v -0.1 2.7 -0.1
v 0 2.7 -0.1

# faces
f 3/7/1 2/7/1 1/7/1
f 4/7/1 2/7/1 3/7/1
f 9/7/1 6/7/1 5/7/1
f 10/7/1 6/7/1 9/7/1
f 11/7/1 8/7/1 7/7/1
f 12/7/1 8/7/1 11/7/1
f 13/7/1 11/7/1 10/7/1
f 14/7/1 11/7/1 13/7/1
f 15/7/1 11/7/1 14/7/1
f 16/7/1 11/7/1 15/7/1
f 18/7/1 15/7/1 14/7/1
f 19/7/1 15/7/1 18/7/1
f 21/7/1 18/7/1 17/7/1
f 21/7/1 20/7/1 19/7/1
f 21/7/1 19/7/1 18/7/1
f 22/7/1 20/7/1 21/7/1
f 23/7/1 20/7/1 22/7/1
f 24/7/1 20/7/1 23/7/1
f 25/7/1 23/7/1 22/7/1
f 26/7/1 23/7/1 25/7/1
f 31/7/1 28/7/1 27/7/1
f 32/7/1 28/7/1 31/7/1
f 35/7/1 30/7/1 29/7/1
f 36/7/1 30/7/1 35/7/1
f 37/7/1 33/7/1 32/7/1
f 38/7/1 33/7/1 37/7/1
f 41/7/1 35/7/1 34/7/1
f 42/7/1 35/7/1 41/7/1
f 44/7/1 39/7/1 38/7/1
f 45/7/1 41/7/1 40/7/1
f 47/7/1 44/7/1 43/7/1
f 47/7/1 39/7/1 44/7/1
f 48/7/1 39/7/1 47/7/1
f 49/7/1 46/7/1 45/7/1
f 49/7/1 45/7/1 40/7/1
f 50/7/1 46/7/1 49/7/1
f 51/7/1 47/7/1 43/7/1
f 52/7/1 47/7/1 51/7/1
f 53/5/1 52/5/1 51/5/1
f 54/5/1 52/5/1 53/5/1
f 55/7/1 54/7/1 53/7/1
f 56/7/1 54/7/1 55/7/1
f 57/3/1 56/3/1 55/3/1
f 58/3/1 56/3/1 57/3/1
f 59/7/1 58/7/1 57/7/1
f 60/7/1 58/7/1 59/7/1
f 63/7/1 46/7/1 50/7/1
f 64/7/1 46/7/1 63/7/1
f 65/7/1 61/7/1 60/7/1
f 66/7/1 61/7/1 65/7/1
f 67/7/1 63/7/1 62/7/1
f 68/7/1 63/7/1 67/7/1
f 69/7/1 67/7/1 66/7/1
f 70/7/1 67/7/1 69/7/1
f 75/8/1 72/8/1 71/8/1
f 76/8/1 72/8/1 75/8/1
f 77/7/1 76/7/1 75/7/1
f 78/7/1 76/7/1 77/7/1
f 79/7/1 74/7/1 73/7/1
f 80/7/1 74/7/1 79/7/1
f 85/7/1 82/7/1 81/7/1
f 86/7/1 82/7/1 85/7/1
f 89/7/1 84/7/1 83/7/1
f 90/7/1 84/7/1 89/7/1
f 91/7/1 87/7/1 86/7/1
f 92/7/1 87/7/1 91/7/1
f 93/7/1 89/7/1 88/7/1
f 94/7/1 89/7/1 93/7/1
f 95/7/1 93/7/1 92/7/1
f 96/7/1 93/7/1 95/7/1
f 97/7/1 93/7/1 96/7/1
f 98/7/1 93/7/1 97/7/1
f 99/4/1 97/4/1 96/4/1
f 100/4/1 97/4/1 99/4/1
f 101/6/1 100/6/1 99/6/1
f 102/6/1 100/6/1 101/6/1
f 103/4/1 102/4/1 101/4/1
f 104/4/1 102/4/1 103/4/1
f 109/4/1 106/4/1 105/4/1
f 110/4/1 106/4/1 109/4/1
f 111/4/1 108/4/1 107/4/1
f 112/4/1 108/4/1 111/4/1
f 113/6/1 110/6/1 109/6/1
f 114/6/1 110/6/1 113/6/1
f 115/6/1 112/6/1 111/6/1
f 116/6/1 112/6/1 115/6/1
f 117/4/1 114/4/1 113/4/1
f 118/4/1 114/4/1 117/4/1
f 119/4/1 116/4/1 115/4/1
f 120/4/1 116/4/1 119/4/1
f 121/4/2 122/4/2 125/4/2
f 125/4/2 122/4/2 126/4/2
f 123/4/2 124/4/2 127/4/2
f 127/4/2 124/4/2 128/4/2
f 125/6/2 126/6/2 129/6/2
f 129/6/2 126/6/2 130/6/2
f 127/6/2 128/6/2 131/6/2
f 131/6/2 128/6/2 132/6/2
f 129/4/2 130/4/2 133/4/2
f 133/4/2 130/4/2 134/4/2
f 131/4/2 132/4/2 135/4/2
f 135/4/2 132/4/2 136/4/2
f 137/8/2 138/8/2 141/8/2
f 141/8/2 138/8/2 142/8/2
f 141/7/2 142/7/2 143/7/2
f 143/7/2 142/7/2 144/7/2
f 139/7/2 140/7/2 145/7/2
f 145/7/2 140/7/2 146/7/2
f 147/7/2 148/7/2 151/7/2
f 151/7/2 148/7/2 152/7/2
f 149/7/2 150/7/2 155/7/2
f 155/7/2 150/7/2 156/7/2
f 152/7/2 153/7/2 157/7/2
f 157/7/2 153/7/2 158/7/2
f 154/7/2 155/7/2 159/7/2
f 159/7/2 155/7/2 160/7/2
f 158/7/2 159/7/2 161/7/2
f 161/7/2 159/7/2 162/7/2
f 162/7/2 159/7/2 163/7/2
f 163/7/2 159/7/2 164/7/2
f 162/4/2 163/4/2 165/4/2
f 165/4/2 163/4/2 166/4/2
f 165/6/2 166/6/2 167/6/2
f 167/6/2 166/6/2 168/6/2
f 167/4/2 168/4/2 169/4/2
f 169/4/2 168/4/2 170/4/2
f 171/7/2 172/7/2 175/7/2
f 175/7/2 172/7/2 176/7/2
f 173/7/2 174/7/2 179/7/2
f 179/7/2 174/7/2 180/7/2
f 176/7/2 177/7/2 181/7/2
f 181/7/2 177/7/2 182/7/2
f 178/7/2 179/7/2 185/7/2
f 185/7/2 179/7/2 186/7/2
f 182/7/2 183/7/2 188/7/2
f 184/7/2 185/7/2 189/7/2
f 187/7/2 188/7/2 191/7/2
f 188/7/2 183/7/2 191/7/2
f 191/7/2 183/7/2 192/7/2
f 189/7/2 190/7/2 193/7/2
f 184/7/2 189/7/2 193/7/2
f 193/7/2 190/7/2 194/7/2
f 187/7/2 191/7/2 195/7/2
f 195/7/2 191/7/2 196/7/2
f 195/5/2 196/5/2 197/5/2
f 197/5/2 196/5/2 198/5/2
f 197/7/2 198/7/2 199/7/2
f 199/7/2 198/7/2 200/7/2
f 199/3/2 200/3/2 201/3/2
f 201/3/2 200/3/2 202/3/2
f 201/7/2 202/7/2 203/7/2
f 203/7/2 202/7/2 204/7/2
f 194/7/2 190/7/2 207/7/2
f 207/7/2 190/7/2 208/7/2
f 204/7/2 205/7/2 209/7/2
f 209/7/2 205/7/2 210/7/2
f 206/7/2 207/7/2 211/7/2
f 211/7/2 207/7/2 212/7/2
f 210/7/2 211/7/2 213/7/2
f 213/7/2 211/7/2 214/7/2
f 215/7/2 216/7/2 219/7/2
f 219/7/2 216/7/2 220/7/2
f 217/7/2 218/7/2 221/7/2
f 221/7/2 218/7/2 222/7/2
f 220/7/2 221/7/2 223/7/2
f 223/7/2 221/7/2 224/7/2
f 224/7/2 221/7/2 225/7/2
f 225/7/2 221/7/2 226/7/2
f 224/7/2 225/7/2 228/7/2
f 228/7/2 225/7/2 229/7/2
f 227/7/2 228/7/2 231/7/2
f 229/7/2 230/7/2 231/7/2
f 228/7/2 229/7/2 231/7/2
f 231/7/2 230/7/2 232/7/2
f 232/7/2 230/7/2 233/7/2
f 233/7/2 230/7/2 234/7/2
f 232/7/2 233/7/2 235/7/2
f 235/7/2 233/7/2 236/7/2
f 237/7/2 238/7/2 239/7/2
f 239/7/2 238/7/2 240/7/2
f 243/7/3 242/7/3 241/7/3
f 244/7/3 242/7/3 243/7/3
f 247/7/3 246/7/3 245/7/3
f 248/7/3 246/7/3 247/7/3
f 256/7/3 249/7/3 248/7/3
f 258/7/3 251/7/3 250/7/3
f 259/7/3 251/7/3 258/7/3
f 260/5/3 252/5/3 251/5/3
f 260/7/3 251/7/3 259/7/3
f 261/5/3 252/5/3 260/5/3
f 262/5/3 252/5/3 261/5/3
f 263/3/3 254/3/3 253/3/3
f 263/7/3 253/7/3 252/7/3
f 264/7/3 255/7/3 254/7/3
f 264/3/3 254/3/3 263/3/3
f 265/7/3 255/7/3 264/7/3
f 266/7/3 255/7/3 265/7/3
f 268/5/3 260/5/3 259/5/3
f 268/5/3 261/5/3 260/5/3
f 269/3/3 262/3/3 261/3/3
f 269/5/3 261/5/3 268/5/3
f 270/5/3 252/5/3 262/5/3
f 270/3/3 262/3/3 269/3/3
f 271/7/3 263/7/3 252/7/3
f 271/5/3 252/5/3 270/5/3
f 271/7/3 264/7/3 263/7/3
f 272/3/3 269/3/3 268/3/3
f 272/5/3 268/5/3 259/5/3
f 273/1/3 270/1/3 269/1/3
f 273/3/3 269/3/3 272/3/3
f 274/2/3 271/2/3 270/2/3
f 274/1/3 270/1/3 273/1/3
f 275/7/3 264/7/3 271/7/3
f 275/2/3 271/2/3 274/2/3
f 276/8/3 257/8/3 256/8/3
f 276/7/3 256/7/3 248/7/3
f 277/7/3 259/7/3 258/7/3
f 277/8/3 257/8/3 276/8/3
f 277/7/3 258/7/3 257/7/3
f 278/7/3 259/7/3 277/7/3
f 279/5/3 272/5/3 259/5/3
f 279/7/3 259/7/3 278/7/3
f 279/5/3 273/5/3 272/5/3
f 280/5/3 273/5/3 279/5/3
f 281/3/3 274/3/3 273/3/3
f 281/5/3 273/5/3 280/5/3
f 282/5/3 275/5/3 274/5/3
f 282/3/3 274/3/3 281/3/3
f 283/7/3 264/7/3 275/7/3
f 284/3/3 265/3/3 264/3/3
f 284/7/3 264/7/3 283/7/3
f 285/7/3 267/7/3 266/7/3
f 285/3/3 265/3/3 284/3/3
f 285/7/3 266/7/3 265/7/3
f 286/7/3 267/7/3 285/7/3
f 287/7/3 267/7/3 286/7/3
f 289/7/3 276/7/3 248/7/3
f 290/7/3 276/7/3 289/7/3
f 291/7/3 280/7/3 279/7/3
f 291/7/3 279/7/3 278/7/3
f 292/5/3 281/5/3 280/5/3
f 292/7/3 280/7/3 291/7/3
f 292/5/3 282/5/3 281/5/3
f 293/5/3 275/5/3 282/5/3
f 293/5/3 282/5/3 292/5/3
f 293/7/3 283/7/3 275/7/3
f 294/3/3 284/3/3 283/3/3
f 294/7/3 283/7/3 293/7/3
f 295/7/3 285/7/3 284/7/3
f 295/3/3 284/3/3 294/3/3
f 295/7/3 286/7/3 285/7/3
f 296/7/3 286/7/3 295/7/3
f 297/7/3 289/7/3 288/7/3
f 298/7/3 289/7/3 297/7/3
f 301/7/3 300/7/3 299/7/3
f 302/7/3 300/7/3 301/7/3
f 306/7/3 303/7/3 302/7/3
f 307/7/3 303/7/3 306/7/3
f 309/7/3 305/7/3 304/7/3
f 310/7/3 305/7/3 309/7/3
f 311/7/3 305/7/3 310/7/3
f 312/7/3 305/7/3 311/7/3
f 313/7/3 305/7/3 312/7/3
f 314/7/3 305/7/3 313/7/3
f 316/7/3 308/7/3 307/7/3
f 317/7/3 308/7/3 316/7/3
f 318/7/3 308/7/3 317/7/3
f 319/7/3 315/7/3 314/7/3
f 320/7/3 315/7/3 319/7/3
f 326/7/3 321/7/3 320/7/3
f 327/7/3 321/7/3 326/7/3
f 329/7/3 324/7/3 323/7/3
f 329/7/3 323/7/3 322/7/3
f 330/7/3 324/7/3 329/7/3
f 336/7/3 326/7/3 325/7/3
f 337/7/3 326/7/3 336/7/3
f 339/7/3 329/7/3 328/7/3
f 340/7/3 329/7/3 339/7/3
f 341/7/3 335/7/3 334/7/3
f 341/7/3 336/7/3 335/7/3
f 341/7/3 332/7/3 331/7/3
f 341/7/3 333/7/3 332/7/3
f 341/7/3 334/7/3 333/7/3
f 342/7/3 336/7/3 341/7/3
f 343/7/3 339/7/3 338/7/3
f 344/7/3 339/7/3 343/7/3
f 349/7/3 346/7/3 345/7/3
f 350/7/3 346/7/3 349/7/3
f 351/7/3 348/7/3 347/7/3
f 352/7/3 348/7/3 351/7/3
f 354/7/3 353/7/3 352/7/3
f 355/7/3 353/7/3 354/7/3
f 357/7/3 356/7/3 355/7/3
f 361/7/3 357/7/3 355/7/3
f 361/4/3 358/4/3 357/4/3
f 362/6/3 359/6/3 358/6/3
f 362/4/3 358/4/3 361/4/3
f 363/4/3 360/4/3 359/4/3
f 363/6/3 359/6/3 362/6/3
f 364/4/3 360/4/3 363/4/3
f 366/7/3 361/7/3 355/7/3
f 367/7/3 361/7/3 366/7/3
f 371/7/3 366/7/3 365/7/3
f 372/7/3 366/7/3 371/7/3
f 373/7/3 369/7/3 368/7/3
f 374/7/3 369/7/3 373/7/3
f 375/7/3 371/7/3 370/7/3
f 376/7/3 371/7/3 375/7/3
f 381/4/3 378/4/3 377/4/3
f 382/6/3 379/6/3 378/6/3
f 382/4/3 378/4/3 381/4/3
f 383/4/3 380/4/3 379/4/3
f 383/6/3 379/6/3 382/6/3
f 384/4/3 380/4/3 383/4/3
f 389/4/3 386/4/3 385/4/3
f 390/6/3 387/6/3 386/6/3
f 390/4/3 386/4/3 389/4/3
f 391/4/3 388/4/3 387/4/3
f 391/6/3 387/6/3 390/6/3
f 392/4/3 388/4/3 391/4/3
f 393/4/4 394/4/4 397/4/4
f 394/6/4 395/6/4 398/6/4
f 397/4/4 394/4/4 398/4/4
f 395/4/4 396/4/4 399/4/4
f 398/6/4 395/6/4 399/6/4
f 399/4/4 396/4/4 400/4/4
f 401/4/4 402/4/4 405/4/4
f 402/6/4 403/6/4 406/6/4
f 405/4/4 402/4/4 406/4/4
f 403/4/4 404/4/4 407/4/4
f 406/6/4 403/6/4 407/6/4
f 407/4/4 404/4/4 408/4/4
f 409/7/4 410/7/4 413/7/4
f 413/7/4 410/7/4 414/7/4
f 411/7/4 412/7/4 415/7/4
f 415/7/4 412/7/4 416/7/4
f 416/7/4 417/7/4 418/7/4
f 418/7/4 417/7/4 419/7/4
f 419/7/4 420/7/4 421/7/4
f 419/7/4 421/7/4 425/7/4
f 421/4/4 422/4/4 425/4/4
f 422/6/4 423/6/4 426/6/4
f 425/4/4 422/4/4 426/4/4
f 423/4/4 424/4/4 427/4/4
f 426/6/4 423/6/4 427/6/4
f 427/4/4 424/4/4 428/4/4
f 419/7/4 425/7/4 430/7/4
f 430/7/4 425/7/4 431/7/4
f 429/7/4 430/7/4 435/7/4
f 435/7/4 430/7/4 436/7/4
f 432/7/4 433/7/4 437/7/4
f 437/7/4 433/7/4 438/7/4
f 434/7/4 435/7/4 439/7/4
f 439/7/4 435/7/4 440/7/4
f 441/7/4 442/7/4 443/7/4
f 443/7/4 442/7/4 444/7/4
f 444/7/4 445/7/4 448/7/4
f 448/7/4 445/7/4 449/7/4
f 446/7/4 447/7/4 451/7/4
f 451/7/4 447/7/4 452/7/4
f 449/7/4 450/7/4 454/7/4
f 454/7/4 450/7/4 455/7/4
f 452/7/4 453/7/4 456/7/4
f 456/7/4 453/7/4 457/7/4
f 457/7/4 458/7/4 462/7/4
f 462/7/4 458/7/4 463/7/4
f 459/7/4 460/7/4 465/7/4
f 465/7/4 460/7/4 466/7/4
f 461/7/4 462/7/4 468/7/4
f 468/7/4 462/7/4 469/7/4
f 464/7/4 465/7/4 471/7/4
f 471/7/4 465/7/4 472/7/4
f 467/7/4 468/7/4 473/7/4
f 473/7/4 468/7/4 474/7/4
f 470/7/4 471/7/4 475/7/4
f 475/7/4 471/7/4 476/7/4
f 477/7/4 478/7/4 479/7/4
f 479/7/4 478/7/4 480/7/4
f 480/7/4 481/7/4 484/7/4
f 482/7/4 483/7/4 485/7/4
f 485/7/4 483/7/4 486/7/4
f 480/7/4 484/7/4 488/7/4
f 486/7/4 487/7/4 488/7/4
f 485/7/4 486/7/4 488/7/4
f 484/7/4 485/7/4 488/7/4
f 488/7/4 487/7/4 489/7/4
f 489/7/4 487/7/4 490/7/4
f 490/7/4 487/7/4 491/7/4
f 480/7/4 488/7/4 493/7/4
f 493/7/4 488/7/4 494/7/4
f 489/7/4 490/7/4 495/7/4
f 495/7/4 490/7/4 496/7/4
f 492/7/4 493/7/4 497/7/4
f 497/7/4 493/7/4 498/7/4
f 499/7/4 500/7/4 501/7/4
f 501/7/4 500/7/4 502/7/4
f 506/7/5 504/7/5 503/7/5
f 507/7/5 504/7/5 506/7/5
f 510/7/5 506/7/5 505/7/5
f 510/7/5 508/7/5 507/7/5
f 510/7/5 507/7/5 506/7/5
f 511/7/5 508/7/5 510/7/5
f 513/7/5 510/7/5 509/7/5
f 513/7/5 512/7/5 511/7/5
f 513/7/5 511/7/5 510/7/5
f 514/7/5 512/7/5 513/7/5
f 515/7/5 512/7/5 514/7/5
f 516/7/5 512/7/5 515/7/5
f 517/7/5 515/7/5 514/7/5
f 518/7/5 515/7/5 517/7/5
f 519/7/5 515/7/5 518/7/5
f 520/7/5 515/7/5 519/7/5
f 521/7/5 519/7/5 518/7/5
f 522/7/5 519/7/5 521/7/5
f 527/7/5 524/7/5 523/7/5
f 528/7/5 524/7/5 527/7/5
f 529/7/5 526/7/5 525/7/5
f 530/7/5 526/7/5 529/7/5
f 535/7/5 532/7/5 531/7/5
f 536/7/5 532/7/5 535/7/5
f 537/7/5 534/7/5 533/7/5
f 538/7/5 534/7/5 537/7/5
f 543/7/5 540/7/5 539/7/5
f 544/7/5 540/7/5 543/7/5
f 545/7/5 542/7/5 541/7/5
f 546/7/5 542/7/5 545/7/5
f 551/7/5 548/7/5 547/7/5
f 552/7/5 548/7/5 551/7/5
f 553/7/5 550/7/5 549/7/5
f 554/7/5 550/7/5 553/7/5
f 555/7/6 556/7/6 558/7/6
f 558/7/6 556/7/6 559/7/6
f 557/7/6 558/7/6 562/7/6
f 562/7/6 558/7/6 563/7/6
f 559/7/6 560/7/6 564/7/6
f 564/7/6 560/7/6 565/7/6
f 561/7/6 562/7/6 567/7/6
f 567/7/6 562/7/6 568/7/6
f 565/7/6 566/7/6 571/7/6
f 571/7/6 566/7/6 572/7/6
f 568/7/6 569/7/6 573/7/6
f 573/7/6 569/7/6 574/7/6
f 570/7/6 571/7/6 575/7/6
f 575/7/6 571/7/6 576/7/6
f 574/7/6 575/7/6 577/7/6
f 577/7/6 575/7/6 578/7/6
f 579/7/6 580/7/6 584/7/6
f 584/7/6 580/7/6 585/7/6
f 581/7/6 582/7/6 586/7/6
f 586/7/6 582/7/6 587/7/6
f 583/7/6 584/7/6 589/7/6
f 589/7/6 584/7/6 590/7/6
f 587/7/6 588/7/6 591/7/6
f 591/7/6 588/7/6 592/7/6
f 593/7/6 594/7/6 597/7/6
f 597/7/6 594/7/6 598/7/6
f 595/7/6 596/7/6 601/7/6
f 601/7/6 596/7/6 602/7/6
f 598/7/6 599/7/6 603/7/6
f 603/7/6 599/7/6 604/7/6
f 600/7/6 601/7/6 605/7/6
f 605/7/6 601/7/6 606/7/6
f 607/7/6 608/7/6 612/7/6
f 612/7/6 608/7/6 613/7/6
f 609/7/6 610/7/6 614/7/6
f 614/7/6 610/7/6 615/7/6
f 611/7/6 612/7/6 617/7/6
f 617/7/6 612/7/6 618/7/6
f 615/7/6 616/7/6 619/7/6
f 619/7/6 616/7/6 620/7/6
f 621/7/6 622/7/6 625/7/6
f 625/7/6 622/7/6 626/7/6
f 623/7/6 624/7/6 629/7/6
f 629/7/6 624/7/6 630/7/6
f 626/7/6 627/7/6 631/7/6
f 631/7/6 627/7/6 632/7/6
f 628/7/6 629/7/6 633/7/6
f 633/7/6 629/7/6 634/7/6
f 635/7/6 636/7/6 638/7/6
f 638/7/6 636/7/6 639/7/6
f 637/7/6 638/7/6 642/7/6
f 642/7/6 638/7/6 643/7/6
f 639/7/6 640/7/6 644/7/6
f 644/7/6 640/7/6 645/7/6
f 641/7/6 642/7/6 647/7/6
f 647/7/6 642/7/6 648/7/6
f 645/7/6 646/7/6 651/7/6
f 651/7/6 646/7/6 652/7/6
f 648/7/6 649/7/6 653/7/6
f 653/7/6 649/7/6 654/7/6
f 650/7/6 651/7/6 655/7/6
f 655/7/6 651/7/6 656/7/6
f 654/7/6 655/7/6 657/7/6
f 657/7/6 655/7/6 658/7/6
f 659/7/6 660/7/6 662/7/6
f 662/7/6 660/7/6 663/7/6
f 661/7/6 662/7/6 665/7/6
f 665/7/6 662/7/6 666/7/6
f 663/7/6 664/7/6 667/7/6
f 667/7/6 664/7/6 668/7/6
f 666/7/6 667/7/6 669/7/6
f 669/7/6 667/7/6 670/7/6
f 671/7/6 672/7/6 675/7/6
f 675/7/6 672/7/6 676/7/6
f 673/7/6 674/7/6 677/7/6
f 677/7/6 674/7/6 678/7/6
f 679/7/6 680/7/6 683/7/6
f 683/7/6 680/7/6 684/7/6
f 681/7/6 682/7/6 685/7/6
f 685/7/6 682/7/6 686/7/6
f 687/4/6 688/4/6 690/4/6
f 690/4/6 688/4/6 691/4/6
f 689/4/6 690/4/6 693/4/6
f 691/4/6 692/4/6 693/4/6
f 690/4/6 691/4/6 693/4/6
f 693/4/6 692/4/6 694/4/6
f 694/4/6 692/4/6 695/4/6
f 695/4/6 692/4/6 696/4/6
f 694/4/6 695/4/6 697/4/6
f 697/4/6 695/4/6 698/4/6
